<svg id="svg" version="1.1" xmlns="http://www.w3.org/2000/svg" xmlns:xlink="http://www.w3.org/1999/xlink" width="400" height="448.1268011527377" viewBox="0, 0, 400,448.1268011527377"><g id="svgg"><path id="path0" d="M361.387 1.145 C 360.957 1.949,360.642 2.363,359.659 3.414 C 359.265 3.834,358.971 4.268,359.005 4.378 C 359.039 4.488,358.745 4.831,358.352 5.140 C 357.959 5.449,357.637 5.845,357.637 6.019 C 357.637 6.193,357.378 6.497,357.061 6.695 C 356.744 6.893,356.482 7.186,356.480 7.346 C 356.478 7.506,355.779 8.318,354.928 9.150 C 354.077 9.982,353.433 10.663,353.497 10.663 C 353.675 10.663,349.566 14.648,347.704 16.282 C 346.802 17.075,345.856 17.918,345.602 18.156 C 345.349 18.393,345.068 18.590,344.977 18.592 C 344.887 18.595,344.479 18.919,344.071 19.313 C 343.212 20.142,342.611 20.624,341.210 21.614 C 340.656 22.006,339.922 22.568,339.579 22.864 C 339.237 23.160,338.877 23.386,338.781 23.366 C 338.684 23.347,338.260 23.650,337.838 24.042 C 337.416 24.433,336.965 24.687,336.835 24.607 C 336.705 24.527,336.599 24.599,336.599 24.767 C 336.599 24.935,336.476 25.072,336.324 25.072 C 336.173 25.072,335.718 25.403,335.313 25.808 C 334.908 26.213,334.449 26.465,334.292 26.367 C 334.134 26.270,334.006 26.311,334.006 26.458 C 334.006 26.764,331.862 28.242,331.418 28.242 C 331.256 28.242,330.865 28.501,330.548 28.818 C 330.231 29.135,329.777 29.395,329.539 29.395 C 329.301 29.395,329.107 29.532,329.107 29.700 C 329.107 29.868,328.977 29.925,328.818 29.827 C 328.660 29.729,328.529 29.754,328.528 29.882 C 328.526 30.185,326.876 31.124,326.346 31.124 C 326.121 31.124,325.937 31.254,325.937 31.412 C 325.937 31.571,325.758 31.700,325.540 31.700 C 325.321 31.700,324.982 31.893,324.786 32.129 C 324.591 32.365,324.324 32.493,324.195 32.413 C 324.065 32.333,323.877 32.400,323.777 32.562 C 323.552 32.927,321.356 34.006,320.839 34.006 C 320.631 34.006,320.461 34.143,320.461 34.311 C 320.461 34.479,320.342 34.542,320.196 34.452 C 320.050 34.362,319.758 34.452,319.547 34.652 C 319.088 35.085,315.964 36.695,315.715 36.627 C 315.620 36.600,315.342 36.778,315.099 37.021 C 314.855 37.265,314.471 37.480,314.245 37.500 C 313.553 37.561,313.476 37.592,310.987 38.839 C 309.660 39.504,308.461 39.977,308.322 39.892 C 308.183 39.806,308.069 39.862,308.069 40.017 C 308.069 40.278,305.184 41.395,304.931 41.233 C 304.870 41.193,304.728 41.308,304.617 41.488 C 304.506 41.668,304.135 41.837,303.793 41.863 C 303.450 41.888,303.170 42.011,303.170 42.136 C 303.170 42.261,302.932 42.363,302.642 42.363 C 302.351 42.363,302.016 42.460,301.897 42.579 C 301.778 42.698,301.595 42.805,301.489 42.816 C 301.264 42.840,299.796 43.460,299.052 43.845 C 298.768 43.992,298.411 44.035,298.259 43.941 C 298.107 43.847,297.983 43.880,297.983 44.015 C 297.983 44.150,296.783 44.692,295.317 45.219 C 293.851 45.746,292.031 46.427,291.274 46.732 C 290.516 47.036,289.782 47.215,289.641 47.128 C 289.501 47.041,289.343 47.097,289.290 47.252 C 289.237 47.407,288.934 47.583,288.617 47.643 C 287.966 47.766,287.165 48.048,286.299 48.458 C 285.975 48.611,285.521 48.774,285.290 48.820 C 285.059 48.865,284.503 49.053,284.054 49.237 C 283.604 49.421,283.118 49.498,282.973 49.409 C 282.828 49.319,282.709 49.368,282.709 49.519 C 282.709 49.770,280.827 50.304,280.331 50.193 C 280.213 50.166,280.115 50.263,280.115 50.409 C 280.115 50.555,279.694 50.775,279.179 50.897 C 277.914 51.198,277.754 51.251,276.139 51.897 C 275.775 52.042,275.185 52.161,274.828 52.161 C 274.471 52.161,274.055 52.284,273.905 52.433 C 273.754 52.582,273.112 52.826,272.478 52.974 C 270.556 53.422,270.467 53.451,270.303 53.669 C 270.154 53.869,265.967 55.053,265.202 55.112 C 265.004 55.127,264.841 55.231,264.841 55.342 C 264.841 55.453,264.226 55.704,263.473 55.899 C 262.720 56.093,261.196 56.554,260.086 56.921 C 258.977 57.289,257.615 57.680,257.061 57.791 C 256.506 57.901,255.922 58.079,255.764 58.186 C 255.326 58.482,253.647 58.992,251.801 59.389 C 250.890 59.585,250.144 59.869,250.144 60.019 C 250.144 60.169,249.958 60.221,249.730 60.133 C 249.503 60.046,249.276 60.069,249.226 60.183 C 249.106 60.459,243.861 62.108,241.999 62.454 C 241.562 62.536,241.132 62.717,241.046 62.857 C 240.959 62.998,240.656 63.112,240.373 63.112 C 240.090 63.112,239.451 63.316,238.953 63.564 C 238.455 63.812,237.927 63.941,237.780 63.850 C 237.633 63.759,237.470 63.803,237.417 63.948 C 237.363 64.092,236.996 64.255,236.599 64.310 C 236.203 64.364,235.811 64.499,235.729 64.608 C 235.646 64.717,235.257 64.871,234.864 64.950 C 234.471 65.029,232.691 65.610,230.908 66.242 C 229.125 66.873,227.666 67.319,227.666 67.233 C 227.666 67.147,227.504 67.211,227.305 67.375 C 227.107 67.540,226.880 67.676,226.801 67.679 C 226.722 67.681,226.322 67.810,225.913 67.966 C 224.323 68.570,222.190 69.124,222.186 68.933 C 222.183 68.822,222.080 68.891,221.957 69.085 C 221.834 69.279,221.479 69.487,221.169 69.546 C 220.499 69.674,219.791 69.923,218.496 70.487 C 217.970 70.716,217.419 70.828,217.271 70.737 C 217.124 70.646,217.003 70.693,217.003 70.843 C 217.003 70.992,216.711 71.183,216.354 71.267 C 215.998 71.352,214.164 72.009,212.280 72.729 C 210.395 73.448,208.774 74.020,208.677 73.999 C 208.581 73.978,207.742 74.308,206.813 74.731 C 205.885 75.154,205.010 75.428,204.868 75.341 C 204.727 75.254,204.611 75.319,204.611 75.487 C 204.611 75.655,204.287 75.793,203.890 75.793 C 203.494 75.793,203.170 75.930,203.170 76.098 C 203.170 76.266,203.049 76.328,202.902 76.237 C 202.754 76.146,202.551 76.205,202.450 76.369 C 202.348 76.533,202.145 76.592,201.997 76.501 C 201.850 76.409,201.729 76.480,201.729 76.657 C 201.729 76.834,201.599 76.899,201.441 76.801 C 201.282 76.703,201.153 76.733,201.153 76.867 C 201.153 77.001,200.873 77.132,200.530 77.158 C 200.188 77.183,199.801 77.373,199.670 77.579 C 199.539 77.785,199.430 77.841,199.428 77.702 C 199.426 77.564,199.251 77.594,199.041 77.769 C 198.830 77.944,198.389 78.128,198.060 78.178 C 197.732 78.228,197.255 78.441,197.002 78.651 C 196.749 78.861,196.542 78.937,196.542 78.818 C 196.542 78.700,196.368 78.748,196.155 78.925 C 195.942 79.101,195.683 79.160,195.579 79.056 C 195.474 78.952,195.389 79.009,195.389 79.183 C 195.389 79.358,195.097 79.589,194.741 79.697 C 194.384 79.806,193.408 80.203,192.572 80.581 C 191.736 80.958,190.245 81.602,189.258 82.012 C 188.271 82.422,186.794 83.081,185.975 83.476 C 185.157 83.871,184.313 84.219,184.100 84.250 C 183.888 84.282,183.394 84.531,183.003 84.805 C 182.612 85.079,182.062 85.303,181.780 85.303 C 181.499 85.303,181.268 85.454,181.268 85.639 C 181.268 85.824,181.188 85.895,181.090 85.797 C 180.991 85.699,180.723 85.807,180.493 86.037 C 180.262 86.267,179.832 86.455,179.535 86.455 C 179.239 86.455,178.915 86.587,178.816 86.748 C 178.716 86.909,178.514 86.966,178.366 86.875 C 178.219 86.784,178.098 86.831,178.098 86.980 C 178.098 87.267,176.373 88.080,176.009 87.965 C 175.890 87.927,175.793 88.010,175.793 88.148 C 175.793 88.287,175.436 88.475,175.000 88.566 C 174.564 88.657,173.308 89.314,172.208 90.026 C 171.109 90.739,170.104 91.257,169.975 91.177 C 169.846 91.097,169.741 91.154,169.741 91.302 C 169.741 91.451,169.319 91.741,168.804 91.946 C 168.289 92.152,167.529 92.553,167.114 92.837 C 166.700 93.122,166.279 93.272,166.178 93.171 C 166.077 93.070,165.994 93.139,165.994 93.324 C 165.994 93.509,165.735 93.660,165.418 93.660 C 165.101 93.660,164.841 93.762,164.841 93.886 C 164.841 94.187,163.114 95.199,163.108 94.901 C 163.106 94.773,163.008 94.816,162.892 94.996 C 162.613 95.427,159.612 97.202,159.150 97.209 C 158.952 97.212,158.790 97.322,158.790 97.454 C 158.790 97.586,158.595 97.695,158.357 97.695 C 158.120 97.695,157.925 97.824,157.925 97.983 C 157.925 98.141,157.746 98.271,157.528 98.271 C 157.310 98.271,156.971 98.464,156.775 98.700 C 156.579 98.936,156.312 99.063,156.181 98.982 C 156.050 98.901,155.838 99.022,155.709 99.250 C 155.581 99.478,155.281 99.708,155.043 99.761 C 154.805 99.813,154.546 99.936,154.467 100.034 C 154.211 100.349,151.023 102.319,150.822 102.286 C 150.716 102.268,150.511 102.463,150.368 102.718 C 150.226 102.973,149.987 103.107,149.838 103.015 C 149.689 102.923,149.568 102.985,149.568 103.153 C 149.568 103.321,149.373 103.458,149.135 103.458 C 148.898 103.458,148.703 103.567,148.703 103.701 C 148.703 103.835,148.228 104.191,147.648 104.494 C 147.068 104.796,146.271 105.335,145.877 105.692 C 145.483 106.048,144.985 106.340,144.771 106.340 C 144.556 106.340,144.380 106.453,144.380 106.590 C 144.380 106.727,143.862 107.183,143.228 107.603 C 142.594 108.022,142.075 108.312,142.075 108.246 C 142.075 108.180,141.676 108.499,141.188 108.955 C 140.700 109.410,140.214 109.754,140.107 109.719 C 140.001 109.683,139.631 109.914,139.286 110.231 C 138.941 110.548,138.487 110.941,138.277 111.105 C 137.375 111.810,135.173 113.435,134.582 113.833 C 133.265 114.719,132.414 115.408,132.187 115.774 C 132.058 115.981,131.846 116.084,131.714 116.003 C 131.583 115.922,131.261 116.182,130.999 116.582 C 130.737 116.982,130.412 117.242,130.278 117.159 C 130.144 117.076,129.823 117.331,129.564 117.726 C 129.305 118.121,128.978 118.444,128.836 118.444 C 128.695 118.444,127.952 119.027,127.186 119.741 C 126.420 120.454,125.692 121.037,125.568 121.037 C 125.444 121.037,124.865 121.556,124.282 122.190 C 123.700 122.824,123.110 123.343,122.972 123.343 C 122.834 123.343,122.238 123.862,121.647 124.496 C 121.055 125.130,120.502 125.648,120.416 125.648 C 120.219 125.648,118.351 127.438,112.225 133.496 C 106.816 138.844,104.243 141.604,99.992 146.614 C 99.017 147.763,98.102 148.703,97.957 148.703 C 97.813 148.703,97.695 148.845,97.695 149.018 C 97.695 149.368,96.962 150.353,95.573 151.873 C 95.065 152.428,94.267 153.401,93.798 154.035 C 93.329 154.669,92.698 155.414,92.394 155.692 C 92.091 155.969,91.932 156.196,92.042 156.196 C 92.272 156.196,91.801 156.811,90.808 157.808 C 90.428 158.189,90.212 158.501,90.328 158.501 C 90.500 158.501,89.015 160.587,88.480 161.095 C 88.397 161.174,87.752 162.082,87.047 163.112 C 86.341 164.143,85.522 165.203,85.226 165.468 C 84.930 165.733,84.679 166.058,84.667 166.189 C 84.631 166.577,83.761 167.849,83.358 168.101 C 83.153 168.230,83.048 168.437,83.125 168.562 C 83.202 168.687,83.010 169.062,82.699 169.397 C 82.387 169.731,82.133 170.121,82.133 170.263 C 82.133 170.405,81.822 170.856,81.442 171.266 C 81.063 171.675,80.825 172.083,80.914 172.172 C 81.003 172.261,80.925 172.334,80.740 172.334 C 80.555 172.334,80.403 172.529,80.403 172.767 C 80.403 173.004,80.274 173.199,80.115 173.199 C 79.957 173.199,79.827 173.397,79.827 173.640 C 79.827 173.883,79.633 174.156,79.396 174.247 C 79.160 174.338,79.024 174.506,79.096 174.622 C 79.230 174.839,77.911 176.954,77.447 177.266 C 77.302 177.363,77.198 177.526,77.214 177.629 C 77.265 177.946,75.107 181.556,74.867 181.556 C 74.742 181.556,74.640 181.809,74.640 182.118 C 74.640 182.427,74.413 182.807,74.135 182.963 C 73.858 183.118,73.660 183.317,73.695 183.406 C 73.818 183.714,73.398 184.585,72.817 185.231 C 72.496 185.587,72.325 185.879,72.437 185.879 C 72.549 185.879,72.291 186.495,71.863 187.248 C 71.435 188.001,70.830 189.135,70.519 189.769 C 70.208 190.403,69.837 190.997,69.696 191.087 C 69.555 191.178,69.387 191.522,69.324 191.851 C 69.260 192.179,68.668 193.596,68.008 194.999 C 66.892 197.369,66.001 199.330,65.408 200.720 C 65.273 201.037,64.817 202.075,64.395 203.026 C 63.973 203.977,63.571 205.064,63.501 205.442 C 63.432 205.820,63.161 206.534,62.899 207.027 C 62.638 207.521,62.389 208.055,62.346 208.213 C 62.304 208.372,62.220 208.696,62.159 208.934 C 61.747 210.561,61.567 211.130,61.384 211.383 C 61.270 211.542,61.103 212.061,61.013 212.536 C 60.923 213.012,60.690 213.790,60.495 214.265 C 60.145 215.123,60.017 215.517,59.862 216.210 C 59.818 216.409,59.681 216.733,59.557 216.931 C 59.433 217.129,59.399 217.291,59.480 217.291 C 59.562 217.291,59.450 217.798,59.231 218.418 C 59.012 219.037,58.910 219.621,59.004 219.715 C 59.097 219.808,59.024 219.885,58.841 219.885 C 58.658 219.885,58.519 220.177,58.532 220.533 C 58.546 220.890,58.488 221.441,58.404 221.758 C 58.321 222.075,58.041 223.372,57.784 224.640 C 57.526 225.908,57.195 227.269,57.047 227.666 C 56.899 228.062,56.754 228.840,56.725 229.395 C 56.696 229.950,56.608 230.523,56.530 230.670 C 56.366 230.977,56.212 232.348,56.210 233.519 C 56.209 233.965,56.117 234.476,56.007 234.655 C 55.896 234.834,55.761 235.636,55.706 236.438 C 55.651 237.240,55.549 238.480,55.478 239.193 C 55.004 244.003,54.898 248.712,55.158 253.458 C 55.375 257.418,55.402 257.728,55.737 260.231 C 55.853 261.102,55.985 262.205,56.028 262.680 C 56.072 263.156,56.196 263.999,56.304 264.553 C 56.412 265.108,56.551 265.951,56.614 266.427 C 56.677 266.902,56.808 267.615,56.905 268.012 C 57.002 268.408,57.149 269.121,57.233 269.597 C 57.528 271.279,57.605 271.624,57.908 272.621 C 58.076 273.174,58.213 273.974,58.213 274.398 C 58.213 274.821,58.331 275.211,58.475 275.264 C 58.620 275.317,58.819 275.814,58.919 276.369 C 59.131 277.551,59.177 277.709,59.589 278.711 C 59.761 279.127,60.063 280.035,60.262 280.728 C 60.460 281.421,60.643 282.053,60.667 282.133 C 60.691 282.212,60.863 282.644,61.049 283.093 C 61.235 283.543,61.314 284.029,61.224 284.174 C 61.135 284.319,61.190 284.438,61.347 284.438 C 61.504 284.438,61.714 284.730,61.813 285.086 C 62.041 285.908,62.743 287.674,63.492 289.311 C 63.811 290.010,64.073 290.756,64.073 290.968 C 64.073 291.181,64.203 291.354,64.361 291.354 C 64.520 291.354,64.571 291.433,64.475 291.529 C 64.380 291.624,64.747 292.543,65.292 293.570 C 65.837 294.597,66.282 295.610,66.282 295.821 C 66.282 296.033,66.413 296.249,66.573 296.303 C 66.734 296.356,66.920 296.688,66.988 297.040 C 67.056 297.392,67.374 297.962,67.695 298.307 C 68.017 298.652,68.212 299.045,68.129 299.179 C 68.046 299.314,68.115 299.424,68.283 299.424 C 68.451 299.424,68.588 299.672,68.588 299.976 C 68.588 300.280,68.688 300.572,68.809 300.624 C 68.931 300.677,69.602 301.693,70.299 302.882 C 70.997 304.071,71.675 305.086,71.807 305.139 C 71.938 305.192,72.046 305.363,72.046 305.520 C 72.046 305.677,72.242 306.001,72.481 306.240 C 72.720 306.479,72.842 306.794,72.752 306.940 C 72.662 307.085,72.715 307.205,72.870 307.205 C 73.025 307.205,73.449 307.691,73.811 308.285 C 74.174 308.880,74.574 309.409,74.700 309.462 C 74.825 309.515,74.928 309.682,74.928 309.834 C 74.928 309.986,75.056 310.267,75.212 310.459 C 76.639 312.209,77.082 312.814,77.037 312.951 C 77.008 313.040,77.592 313.806,78.334 314.653 C 79.076 315.500,79.656 316.295,79.622 316.420 C 79.589 316.544,79.946 316.940,80.415 317.300 C 80.884 317.659,81.268 318.077,81.268 318.227 C 81.268 318.378,81.657 318.864,82.133 319.308 C 82.608 319.753,82.997 320.199,82.997 320.300 C 82.997 320.401,83.548 321.012,84.222 321.656 C 84.896 322.301,85.252 322.724,85.014 322.597 C 84.421 322.280,90.404 328.182,93.366 330.836 C 94.692 332.024,96.220 333.419,96.761 333.934 C 97.302 334.449,97.831 334.870,97.936 334.870 C 98.042 334.870,98.841 335.543,99.713 336.365 C 100.584 337.188,101.307 337.804,101.319 337.734 C 101.331 337.665,101.720 337.902,102.184 338.261 C 102.647 338.621,103.577 339.313,104.251 339.799 C 104.924 340.286,105.476 340.802,105.476 340.947 C 105.476 341.092,105.670 341.210,105.908 341.210 C 106.146 341.210,106.340 341.362,106.340 341.547 C 106.340 341.732,106.426 341.797,106.530 341.693 C 106.635 341.588,106.903 341.763,107.126 342.082 C 107.350 342.400,107.654 342.586,107.803 342.494 C 107.952 342.402,108.151 342.529,108.245 342.775 C 108.340 343.022,108.535 343.152,108.678 343.064 C 108.821 342.975,109.015 343.105,109.110 343.352 C 109.205 343.599,109.382 343.739,109.504 343.664 C 109.626 343.588,110.038 343.816,110.420 344.170 C 110.801 344.523,111.202 344.813,111.311 344.813 C 111.420 344.813,111.761 345.029,112.070 345.293 C 112.379 345.558,112.704 345.701,112.793 345.612 C 112.882 345.523,113.036 345.663,113.136 345.923 C 113.235 346.182,113.433 346.323,113.575 346.235 C 113.717 346.147,113.833 346.220,113.833 346.398 C 113.833 346.575,113.939 346.654,114.070 346.574 C 114.200 346.493,114.528 346.685,114.798 347.001 C 115.068 347.317,115.416 347.496,115.572 347.400 C 115.727 347.304,115.932 347.428,116.026 347.675 C 116.121 347.921,116.294 348.064,116.411 347.992 C 116.528 347.920,117.321 348.310,118.173 348.858 C 119.024 349.407,119.888 349.856,120.091 349.856 C 120.295 349.856,120.461 349.993,120.461 350.161 C 120.461 350.329,120.591 350.386,120.749 350.288 C 120.908 350.190,121.037 350.247,121.037 350.415 C 121.037 350.583,121.135 350.690,121.254 350.652 C 121.606 350.540,123.343 351.345,123.343 351.620 C 123.343 351.759,123.593 351.873,123.899 351.873 C 124.204 351.873,124.658 352.077,124.907 352.326 C 125.156 352.575,125.362 352.672,125.365 352.542 C 125.367 352.412,125.476 352.474,125.607 352.680 C 125.737 352.886,126.124 353.076,126.467 353.102 C 126.809 353.127,127.089 353.272,127.089 353.423 C 127.089 353.575,127.164 353.624,127.255 353.532 C 127.347 353.441,128.092 353.663,128.913 354.025 C 130.501 354.727,131.375 355.053,131.487 354.987 C 131.525 354.964,131.880 355.124,132.277 355.341 C 132.673 355.559,133.127 355.756,133.285 355.779 C 133.444 355.801,133.671 355.856,133.790 355.900 C 134.120 356.022,134.348 356.078,135.519 356.322 C 136.113 356.447,136.599 356.671,136.599 356.821 C 136.599 356.972,136.706 357.028,136.837 356.948 C 136.968 356.867,137.843 357.002,138.782 357.248 C 142.371 358.188,143.225 358.300,147.046 358.332 C 148.750 358.346,150.144 358.423,150.144 358.504 C 150.144 358.721,147.442 360.352,147.190 360.287 C 147.071 360.256,146.974 360.360,146.974 360.519 C 146.974 360.677,146.793 360.807,146.573 360.807 C 146.352 360.807,146.097 361.001,146.005 361.239 C 145.914 361.477,145.655 361.671,145.429 361.671 C 145.203 361.671,144.944 361.866,144.853 362.104 C 144.761 362.341,144.499 362.536,144.269 362.536 C 144.040 362.536,143.809 362.633,143.756 362.752 C 143.602 363.098,141.358 364.553,140.979 364.553 C 140.789 364.553,140.634 364.683,140.634 364.841 C 140.634 365.000,140.439 365.130,140.202 365.130 C 139.964 365.130,139.769 365.259,139.769 365.418 C 139.769 365.576,139.575 365.706,139.337 365.706 C 139.099 365.706,138.905 365.817,138.905 365.952 C 138.905 366.087,137.997 366.801,136.888 367.539 C 135.778 368.277,134.870 368.790,134.870 368.679 C 134.870 368.568,134.680 368.729,134.447 369.037 C 134.214 369.345,134.020 369.505,134.015 369.394 C 134.010 369.283,133.663 369.510,133.243 369.898 C 132.824 370.287,132.305 370.605,132.090 370.605 C 131.876 370.605,131.700 370.735,131.700 370.893 C 131.700 371.052,131.506 371.182,131.268 371.182 C 131.030 371.182,130.836 371.311,130.836 371.470 C 130.836 371.628,130.705 371.758,130.545 371.758 C 130.384 371.758,129.620 372.203,128.845 372.748 C 128.070 373.292,127.358 373.660,127.263 373.564 C 127.167 373.469,127.089 373.542,127.089 373.727 C 127.089 373.912,126.895 374.063,126.657 374.063 C 126.419 374.063,126.225 374.201,126.225 374.369 C 126.225 374.536,126.109 374.602,125.967 374.514 C 125.825 374.427,125.627 374.567,125.528 374.827 C 125.428 375.086,125.274 375.226,125.185 375.137 C 125.096 375.048,124.742 375.219,124.399 375.517 C 124.056 375.815,123.675 376.061,123.553 376.064 C 123.432 376.067,123.045 376.336,122.695 376.662 C 122.344 376.989,121.763 377.330,121.403 377.420 C 121.044 377.510,120.749 377.672,120.749 377.779 C 120.749 378.060,119.021 379.041,119.016 378.763 C 119.013 378.635,118.916 378.661,118.800 378.821 C 118.517 379.209,116.082 380.797,115.664 380.866 C 115.482 380.896,115.061 381.193,114.727 381.526 C 114.394 381.860,113.927 382.133,113.689 382.133 C 113.451 382.133,113.256 382.270,113.256 382.438 C 113.256 382.606,113.127 382.663,112.968 382.565 C 112.810 382.467,112.680 382.532,112.680 382.709 C 112.680 382.886,112.564 382.959,112.422 382.872 C 112.280 382.784,112.095 382.893,112.010 383.114 C 111.925 383.335,111.393 383.668,110.827 383.855 C 110.261 384.042,109.798 384.290,109.798 384.407 C 109.798 384.523,109.344 384.797,108.790 385.014 C 108.235 385.232,107.781 385.506,107.781 385.622 C 107.781 385.739,107.327 385.984,106.772 386.167 C 106.218 386.350,105.764 386.641,105.764 386.814 C 105.764 386.987,105.685 387.049,105.589 386.953 C 105.493 386.857,105.149 387.025,104.825 387.327 C 104.501 387.629,104.125 387.808,103.991 387.725 C 103.856 387.642,103.746 387.719,103.746 387.896 C 103.746 388.073,103.617 388.138,103.458 388.040 C 103.300 387.942,103.170 387.979,103.170 388.122 C 103.170 388.265,102.684 388.629,102.089 388.930 C 101.495 389.232,100.670 389.702,100.256 389.976 C 99.842 390.249,99.420 390.390,99.319 390.289 C 99.218 390.188,99.135 390.248,99.135 390.422 C 99.135 390.688,98.272 391.145,97.674 391.196 C 97.583 391.204,97.281 391.439,97.002 391.717 C 96.723 391.996,96.376 392.151,96.230 392.061 C 96.085 391.971,95.965 392.056,95.965 392.250 C 95.965 392.444,95.885 392.523,95.787 392.425 C 95.689 392.327,95.419 392.436,95.187 392.668 C 94.956 392.899,94.647 393.015,94.501 392.925 C 94.356 392.835,94.236 392.899,94.236 393.067 C 94.236 393.234,94.104 393.372,93.942 393.372 C 93.780 393.372,93.143 393.706,92.526 394.114 C 91.909 394.522,91.212 394.885,90.976 394.919 C 90.741 394.954,90.340 395.154,90.087 395.365 C 89.833 395.576,89.623 395.635,89.621 395.496 C 89.619 395.358,89.521 395.388,89.405 395.563 C 89.148 395.950,83.313 398.847,82.791 398.847 C 82.587 398.847,82.421 398.967,82.421 399.113 C 82.421 399.363,80.390 400.175,80.147 400.022 C 80.086 399.983,79.952 400.086,79.850 400.252 C 79.591 400.671,76.470 402.022,76.256 401.808 C 76.159 401.712,76.081 401.769,76.081 401.934 C 76.081 402.254,74.560 402.978,73.888 402.978 C 73.667 402.978,73.487 403.094,73.487 403.235 C 73.487 403.377,73.357 403.412,73.199 403.314 C 73.040 403.216,72.911 403.273,72.911 403.441 C 72.911 403.609,72.813 403.726,72.695 403.702 C 72.576 403.677,71.960 403.891,71.326 404.176 C 70.692 404.461,70.011 404.697,69.813 404.701 C 69.615 404.704,69.452 404.823,69.452 404.964 C 69.452 405.106,69.323 405.141,69.164 405.043 C 69.006 404.945,68.876 405.002,68.876 405.170 C 68.876 405.338,68.676 405.476,68.432 405.476 C 68.188 405.476,67.471 405.740,66.837 406.063 C 66.204 406.386,65.561 406.573,65.408 406.478 C 65.255 406.383,65.130 406.465,65.130 406.659 C 65.130 406.854,65.043 406.926,64.937 406.819 C 64.830 406.713,64.438 406.827,64.064 407.071 C 63.690 407.316,63.282 407.453,63.156 407.376 C 63.030 407.298,62.507 407.490,61.994 407.802 C 61.481 408.114,60.939 408.295,60.790 408.203 C 60.641 408.110,60.519 408.162,60.519 408.317 C 60.519 408.558,59.109 409.034,58.647 408.950 C 58.564 408.934,58.109 409.122,57.637 409.366 C 57.165 409.610,56.709 409.799,56.624 409.786 C 56.540 409.773,55.751 410.031,54.871 410.360 C 53.991 410.690,53.152 410.885,53.005 410.794 C 52.858 410.703,52.738 410.766,52.738 410.934 C 52.738 411.102,52.640 411.224,52.522 411.205 C 52.403 411.186,52.208 411.203,52.089 411.241 C 51.970 411.280,51.776 411.336,51.657 411.366 C 51.538 411.396,50.934 411.569,50.315 411.751 C 49.696 411.933,49.080 412.015,48.946 411.932 C 48.813 411.849,48.703 411.897,48.703 412.039 C 48.703 412.180,48.541 412.309,48.343 412.324 C 48.145 412.340,47.021 412.613,45.845 412.932 C 44.669 413.251,43.631 413.499,43.539 413.483 C 43.447 413.466,43.177 413.531,42.939 413.627 C 42.702 413.722,42.053 413.866,41.499 413.947 C 40.944 414.027,39.954 414.226,39.300 414.389 C 38.645 414.552,37.478 414.759,36.706 414.849 C 35.934 414.940,34.914 415.080,34.438 415.160 C 33.611 415.299,32.222 415.458,29.395 415.734 C 27.273 415.942,23.710 416.151,20.029 416.283 C 15.501 416.446,13.630 416.647,11.607 417.187 C 10.691 417.431,9.813 417.659,9.654 417.694 C 9.496 417.728,8.847 418.027,8.213 418.358 C 7.579 418.688,6.953 418.964,6.823 418.970 C 6.692 418.977,6.352 419.250,6.068 419.578 C 5.784 419.905,5.436 420.173,5.294 420.173 C 5.153 420.173,4.714 420.584,4.320 421.086 C 3.925 421.588,3.324 422.294,2.984 422.654 C 2.645 423.014,2.439 423.381,2.528 423.470 C 2.617 423.558,2.538 423.631,2.354 423.631 C 2.169 423.631,2.043 423.728,2.074 423.847 C 2.178 424.241,1.695 425.360,1.422 425.360 C 1.274 425.360,1.175 425.457,1.201 425.576 C 1.228 425.695,1.137 426.311,0.998 426.945 C 0.649 428.546,0.654 428.522,0.596 428.602 C 0.433 428.825,0.452 432.344,0.617 432.446 C 0.725 432.513,0.778 432.894,0.734 433.294 C 0.690 433.693,0.768 434.090,0.908 434.177 C 1.048 434.263,1.093 434.446,1.009 434.582 C 0.924 434.719,0.987 434.912,1.148 435.012 C 1.309 435.111,1.441 435.509,1.441 435.896 C 1.441 436.283,1.539 436.599,1.659 436.599 C 1.892 436.599,2.757 438.353,2.671 438.651 C 2.576 438.978,6.463 443.140,7.485 443.804 C 7.850 444.042,8.502 444.524,8.934 444.877 C 9.365 445.229,9.801 445.434,9.902 445.333 C 10.004 445.232,10.086 445.322,10.086 445.533 C 10.086 445.744,10.173 445.831,10.279 445.725 C 10.385 445.619,10.677 445.717,10.928 445.944 C 11.178 446.171,11.513 446.370,11.671 446.385 C 12.104 446.429,14.203 446.978,14.697 447.177 C 14.935 447.272,15.259 447.376,15.418 447.407 C 15.576 447.437,15.836 447.498,15.994 447.541 C 17.068 447.831,23.020 447.978,23.631 447.729 C 23.869 447.632,24.458 447.512,24.941 447.461 C 25.424 447.411,25.963 447.280,26.140 447.171 C 26.316 447.062,26.654 447.046,26.890 447.137 C 27.126 447.227,27.406 447.161,27.512 446.989 C 27.619 446.817,27.841 446.760,28.006 446.862 C 28.171 446.964,28.389 446.914,28.490 446.751 C 28.592 446.588,29.078 446.391,29.571 446.313 C 30.065 446.236,30.745 446.024,31.084 445.843 C 31.423 445.661,31.700 445.598,31.700 445.702 C 31.700 445.807,31.884 445.739,32.109 445.553 C 32.333 445.367,32.820 445.182,33.189 445.143 C 33.559 445.103,34.362 444.852,34.973 444.584 C 35.584 444.315,36.200 444.168,36.342 444.255 C 36.484 444.343,36.599 444.277,36.599 444.109 C 36.599 443.941,36.790 443.804,37.022 443.804 C 37.254 443.804,37.870 443.622,38.391 443.400 C 38.911 443.177,40.425 442.525,41.755 441.951 C 43.085 441.377,44.232 440.966,44.304 441.038 C 44.376 441.110,44.974 440.868,45.632 440.500 C 46.291 440.132,46.928 439.819,47.047 439.803 C 47.339 439.764,50.826 438.158,52.492 437.294 C 53.229 436.912,54.039 436.599,54.293 436.599 C 54.547 436.599,54.755 436.487,54.755 436.350 C 54.755 436.213,55.371 435.871,56.124 435.588 C 56.877 435.306,58.032 434.765,58.690 434.385 C 59.349 434.006,60.182 433.638,60.542 433.569 C 60.902 433.500,61.271 433.332,61.362 433.197 C 61.453 433.062,61.916 432.755,62.392 432.514 C 62.867 432.272,64.406 431.472,65.811 430.735 C 67.216 429.998,68.545 429.395,68.765 429.395 C 68.985 429.395,69.165 429.298,69.166 429.179 C 69.168 428.896,70.829 427.954,71.325 427.954 C 71.537 427.954,71.753 427.834,71.806 427.687 C 71.859 427.541,72.091 427.379,72.323 427.327 C 72.555 427.276,73.001 427.006,73.314 426.729 C 73.627 426.452,74.108 426.225,74.382 426.225 C 74.656 426.225,74.923 426.120,74.976 425.992 C 75.123 425.635,78.385 423.844,78.395 424.114 C 78.400 424.245,78.536 424.125,78.697 423.847 C 78.859 423.570,79.244 423.343,79.553 423.343 C 79.862 423.343,80.115 423.192,80.115 423.007 C 80.115 422.822,80.198 422.753,80.299 422.855 C 80.401 422.956,80.864 422.718,81.330 422.326 C 81.796 421.934,82.319 421.614,82.492 421.614 C 82.666 421.614,83.012 421.430,83.263 421.204 C 83.513 420.979,83.907 420.752,84.139 420.700 C 84.370 420.648,84.789 420.403,85.070 420.157 C 85.350 419.910,86.457 419.262,87.530 418.716 C 88.603 418.170,89.524 417.626,89.577 417.507 C 89.630 417.388,89.857 417.291,90.082 417.291 C 90.306 417.291,90.490 417.154,90.490 416.986 C 90.490 416.818,90.620 416.761,90.778 416.859 C 90.937 416.957,91.066 416.917,91.066 416.771 C 91.066 416.625,91.715 416.198,92.507 415.822 C 93.300 415.446,93.948 415.039,93.948 414.918 C 93.948 414.796,94.071 414.697,94.222 414.697 C 94.372 414.697,95.072 414.308,95.777 413.833 C 96.481 413.357,97.185 412.968,97.341 412.968 C 97.497 412.968,97.784 412.775,97.980 412.539 C 98.176 412.303,98.438 412.173,98.562 412.249 C 98.685 412.326,98.864 412.187,98.959 411.940 C 99.054 411.693,99.262 411.572,99.422 411.670 C 99.581 411.769,99.712 411.727,99.712 411.577 C 99.712 411.427,100.133 411.092,100.648 410.832 C 101.985 410.157,102.706 409.697,102.949 409.366 C 103.066 409.207,103.163 409.187,103.166 409.320 C 103.168 409.453,103.553 409.239,104.021 408.846 C 104.489 408.452,105.267 407.955,105.750 407.741 C 106.233 407.527,106.628 407.246,106.628 407.117 C 106.628 406.988,106.758 406.963,106.916 407.061 C 107.075 407.158,107.205 407.110,107.205 406.953 C 107.205 406.796,107.487 406.577,107.832 406.468 C 108.177 406.358,108.792 405.961,109.198 405.584 C 109.604 405.207,110.091 404.899,110.279 404.899 C 110.467 404.899,110.825 404.695,111.075 404.446 C 111.324 404.197,111.527 404.061,111.527 404.144 C 111.527 404.227,111.868 403.980,112.284 403.594 C 112.700 403.208,113.154 402.963,113.293 403.048 C 113.431 403.134,113.545 403.045,113.545 402.851 C 113.545 402.657,113.618 402.570,113.707 402.659 C 113.796 402.749,114.201 402.513,114.607 402.137 C 115.014 401.760,115.446 401.513,115.568 401.589 C 115.690 401.664,115.864 401.532,115.955 401.295 C 116.046 401.058,116.308 400.865,116.538 400.865 C 116.767 400.865,116.998 400.745,117.051 400.598 C 117.104 400.451,117.327 400.289,117.546 400.238 C 117.766 400.186,118.272 399.851,118.672 399.493 C 119.072 399.135,119.457 398.900,119.529 398.971 C 119.600 399.043,120.000 398.785,120.417 398.398 C 120.834 398.011,121.280 397.695,121.407 397.695 C 121.534 397.695,121.912 397.440,122.246 397.128 C 122.580 396.817,122.947 396.619,123.060 396.689 C 123.173 396.759,123.495 396.563,123.775 396.254 C 124.055 395.944,124.397 395.760,124.534 395.845 C 124.672 395.930,124.784 395.862,124.784 395.694 C 124.784 395.526,124.978 395.389,125.216 395.389 C 125.454 395.389,125.648 395.278,125.648 395.142 C 125.648 394.862,128.441 392.935,129.971 392.160 C 130.526 391.879,131.490 391.193,132.113 390.637 C 132.736 390.081,133.417 389.625,133.626 389.625 C 133.835 389.625,134.006 389.498,134.006 389.343 C 134.006 389.187,134.321 388.981,134.705 388.884 C 135.090 388.788,135.478 388.518,135.568 388.284 C 135.657 388.051,135.861 387.940,136.021 388.039 C 136.181 388.138,136.311 388.100,136.311 387.955 C 136.311 387.662,140.469 384.726,140.885 384.726 C 141.030 384.726,141.223 384.532,141.315 384.294 C 141.406 384.056,141.620 383.862,141.790 383.862 C 141.960 383.862,142.256 383.729,142.447 383.568 C 144.042 382.222,144.592 381.819,145.029 381.679 C 145.306 381.590,145.533 381.389,145.533 381.232 C 145.533 381.074,145.663 381.026,145.821 381.124 C 145.980 381.222,146.110 381.165,146.110 380.997 C 146.110 380.829,146.225 380.692,146.367 380.692 C 146.509 380.692,147.041 380.303,147.549 379.828 C 148.058 379.353,148.576 379.028,148.702 379.106 C 148.828 379.184,149.005 379.054,149.096 378.817 C 149.187 378.580,149.395 378.386,149.558 378.386 C 149.721 378.386,150.336 377.932,150.924 377.378 C 151.512 376.823,152.103 376.369,152.237 376.369 C 152.371 376.369,152.895 375.980,153.402 375.506 C 153.908 375.031,154.413 374.642,154.524 374.641 C 154.635 374.640,155.075 374.316,155.503 373.919 C 155.930 373.523,156.409 373.199,156.567 373.199 C 156.725 373.199,157.226 372.810,157.680 372.334 C 158.135 371.859,158.639 371.470,158.802 371.470 C 158.964 371.470,159.469 371.089,159.923 370.625 C 160.378 370.160,160.810 369.840,160.883 369.913 C 160.957 369.987,161.239 369.707,161.511 369.292 C 161.783 368.877,162.077 368.610,162.165 368.697 C 162.253 368.785,162.557 368.561,162.841 368.200 C 163.125 367.839,163.918 367.163,164.604 366.697 C 165.289 366.231,166.087 365.558,166.375 365.202 C 166.664 364.845,167.064 364.553,167.265 364.553 C 167.465 364.553,168.233 363.957,168.973 363.228 C 169.712 362.499,170.317 361.997,170.317 362.111 C 170.317 362.226,170.748 361.850,171.274 361.275 C 171.800 360.701,172.325 360.231,172.441 360.231 C 172.556 360.231,172.968 359.887,173.357 359.468 C 173.745 359.049,174.063 358.779,174.063 358.869 C 174.063 359.053,175.287 357.965,177.245 356.041 C 177.964 355.334,178.666 354.755,178.804 354.755 C 178.942 354.755,179.423 354.343,179.873 353.839 C 180.323 353.335,180.692 353.005,180.692 353.106 C 180.692 353.207,181.437 352.562,182.349 351.672 C 185.231 348.860,186.528 347.683,186.320 348.066 C 186.209 348.271,187.076 347.493,188.247 346.337 C 189.417 345.182,191.503 343.199,192.882 341.931 C 195.989 339.073,213.098 321.965,216.427 318.387 C 221.030 313.438,221.866 312.535,223.440 310.807 C 225.420 308.633,227.676 306.115,230.456 302.974 C 230.903 302.469,231.787 301.435,232.421 300.675 C 233.055 299.915,233.978 298.873,234.472 298.359 C 234.966 297.846,235.318 297.374,235.254 297.310 C 235.191 297.247,235.597 296.793,236.157 296.301 C 236.718 295.809,237.176 295.282,237.176 295.131 C 237.176 294.979,237.500 294.599,237.896 294.288 C 238.293 293.976,238.617 293.587,238.617 293.423 C 238.617 293.259,238.941 292.870,239.337 292.559 C 239.733 292.247,240.058 291.867,240.058 291.714 C 240.058 291.560,240.382 291.192,240.778 290.894 C 241.174 290.597,241.499 290.223,241.499 290.064 C 241.499 289.906,241.821 289.450,242.214 289.052 C 242.608 288.654,243.721 287.323,244.687 286.095 C 245.654 284.867,246.548 283.862,246.674 283.862 C 246.801 283.862,247.065 283.474,247.261 283.001 C 247.457 282.527,247.732 282.211,247.872 282.297 C 248.012 282.384,248.127 282.260,248.127 282.022 C 248.127 281.784,248.385 281.408,248.701 281.186 C 249.017 280.965,249.212 280.720,249.134 280.642 C 249.055 280.563,249.490 279.959,250.100 279.299 C 250.709 278.638,251.144 278.098,251.064 278.098 C 250.985 278.098,251.200 277.856,251.541 277.560 C 251.882 277.264,252.161 276.930,252.161 276.818 C 252.161 276.428,254.791 273.199,255.108 273.199 C 255.284 273.199,255.343 273.115,255.241 273.012 C 255.138 272.909,255.292 272.617,255.582 272.364 C 255.873 272.110,256.317 271.513,256.569 271.037 C 256.821 270.562,257.326 269.822,257.692 269.394 C 258.509 268.438,259.088 267.680,259.654 266.827 C 259.892 266.469,260.571 265.636,261.163 264.976 C 261.755 264.317,262.158 263.695,262.059 263.596 C 261.959 263.496,262.090 263.333,262.349 263.233 C 262.609 263.133,262.762 262.956,262.689 262.839 C 262.617 262.721,262.988 262.155,263.515 261.580 C 264.042 261.005,264.407 260.469,264.328 260.389 C 264.248 260.309,264.395 260.163,264.655 260.063 C 264.914 259.963,265.057 259.770,264.973 259.633 C 264.888 259.497,265.084 259.220,265.407 259.018 C 265.730 258.816,265.994 258.541,265.994 258.407 C 265.994 258.036,267.800 255.526,268.377 255.096 C 268.657 254.887,268.811 254.595,268.720 254.447 C 268.629 254.299,268.691 254.179,268.859 254.179 C 269.027 254.179,269.164 253.991,269.164 253.761 C 269.164 253.531,269.370 253.227,269.622 253.086 C 269.874 252.945,270.068 252.744,270.053 252.638 C 270.006 252.320,272.109 249.280,272.375 249.280 C 272.511 249.280,272.622 249.085,272.622 248.847 C 272.622 248.610,272.752 248.415,272.911 248.415 C 273.069 248.415,273.199 248.216,273.199 247.974 C 273.199 247.731,273.393 247.458,273.629 247.367 C 273.866 247.276,273.997 247.100,273.921 246.977 C 273.844 246.853,273.977 246.589,274.216 246.391 C 274.455 246.192,274.849 245.612,275.092 245.100 C 275.334 244.589,275.786 243.899,276.095 243.567 C 276.404 243.235,276.657 242.824,276.657 242.654 C 276.657 242.484,276.851 242.271,277.088 242.180 C 277.325 242.089,277.447 241.898,277.359 241.757 C 277.271 241.615,277.337 241.499,277.505 241.499 C 277.672 241.499,277.810 241.336,277.811 241.138 C 277.812 240.940,278.298 240.130,278.892 239.337 C 279.485 238.545,280.154 237.542,280.378 237.109 C 280.601 236.675,281.007 236.082,281.279 235.790 C 281.551 235.497,281.863 234.976,281.973 234.632 C 282.082 234.288,282.292 234.006,282.440 234.006 C 282.588 234.006,282.709 233.830,282.709 233.616 C 282.709 233.401,283.020 232.890,283.399 232.481 C 283.779 232.071,284.017 231.663,283.927 231.574 C 283.838 231.485,283.925 231.412,284.119 231.412 C 284.313 231.412,284.392 231.282,284.294 231.124 C 284.196 230.965,284.230 230.836,284.370 230.836 C 284.510 230.836,284.915 230.252,285.271 229.540 C 285.627 228.827,286.137 228.026,286.403 227.759 C 286.670 227.493,286.904 227.168,286.924 227.038 C 286.943 226.908,286.976 226.703,286.996 226.582 C 287.015 226.462,287.323 226.035,287.680 225.635 C 288.037 225.234,288.358 224.759,288.394 224.578 C 288.429 224.397,289.203 223.105,290.112 221.707 C 291.022 220.308,291.737 219.063,291.702 218.940 C 291.666 218.817,291.833 218.641,292.072 218.549 C 292.311 218.457,292.507 218.143,292.507 217.851 C 292.507 217.559,292.669 217.216,292.867 217.089 C 293.066 216.962,293.746 215.837,294.380 214.589 C 295.014 213.341,295.695 212.257,295.893 212.181 C 296.091 212.105,296.254 211.795,296.254 211.494 C 296.254 211.192,296.513 210.723,296.830 210.452 C 297.147 210.180,297.406 209.752,297.406 209.500 C 297.406 209.248,297.641 208.791,297.927 208.484 C 298.213 208.176,298.634 207.504,298.862 206.988 C 299.090 206.473,299.374 206.052,299.494 206.052 C 299.614 206.052,299.712 205.793,299.712 205.476 C 299.712 205.159,299.841 204.899,300.000 204.899 C 300.159 204.899,300.262 204.802,300.231 204.683 C 300.140 204.343,301.635 201.590,302.136 201.174 C 302.384 200.968,302.523 200.695,302.444 200.567 C 302.365 200.439,302.505 200.130,302.756 199.879 C 303.006 199.629,303.128 199.424,303.027 199.424 C 302.926 199.424,303.140 199.006,303.503 198.496 C 303.866 197.986,304.191 197.383,304.224 197.156 C 304.257 196.929,304.434 196.651,304.616 196.538 C 304.799 196.426,304.925 196.283,304.897 196.221 C 304.786 195.979,305.583 194.524,305.827 194.524 C 305.969 194.524,306.015 194.410,305.929 194.270 C 305.843 194.131,306.083 193.558,306.464 192.997 C 306.844 192.436,307.080 191.902,306.988 191.810 C 306.896 191.718,306.993 191.643,307.205 191.643 C 307.416 191.643,307.508 191.562,307.409 191.463 C 307.310 191.364,307.548 190.866,307.936 190.357 C 308.325 189.847,308.557 189.345,308.452 189.240 C 308.347 189.135,308.413 189.049,308.598 189.049 C 308.782 189.049,308.934 188.853,308.934 188.613 C 308.934 188.111,309.519 186.987,309.942 186.676 C 310.101 186.559,310.113 186.462,309.970 186.460 C 309.826 186.457,309.944 186.196,310.231 185.879 C 310.517 185.562,310.659 185.303,310.544 185.303 C 310.298 185.303,314.453 177.134,314.771 176.993 C 314.891 176.940,314.922 176.788,314.841 176.656 C 314.759 176.523,314.865 176.243,315.076 176.032 C 315.490 175.618,315.534 175.528,315.765 174.646 C 315.849 174.326,316.032 174.063,316.172 174.063 C 316.312 174.063,316.406 173.966,316.380 173.847 C 316.304 173.494,316.942 172.118,317.278 171.910 C 317.449 171.804,317.514 171.597,317.423 171.450 C 317.332 171.302,317.394 171.182,317.562 171.182 C 317.730 171.182,317.846 171.084,317.821 170.965 C 317.795 170.847,317.925 170.384,318.109 169.938 C 318.293 169.492,318.444 169.006,318.444 168.857 C 318.444 168.709,318.573 168.588,318.732 168.588 C 318.890 168.588,319.024 168.361,319.029 168.084 C 319.034 167.806,319.358 167.061,319.748 166.427 C 320.139 165.793,320.459 165.058,320.460 164.793 C 320.460 164.529,320.592 164.270,320.752 164.216 C 320.912 164.163,321.104 163.805,321.178 163.421 C 321.252 163.037,321.412 162.648,321.535 162.557 C 321.658 162.466,321.799 162.197,321.849 161.960 C 321.899 161.722,322.255 160.855,322.641 160.032 C 323.027 159.210,323.343 158.399,323.343 158.231 C 323.343 158.063,323.494 157.925,323.679 157.925 C 323.864 157.925,323.930 157.840,323.826 157.735 C 323.721 157.631,323.742 157.404,323.872 157.231 C 324.002 157.058,324.336 156.300,324.614 155.548 C 324.892 154.795,325.239 154.179,325.384 154.179 C 325.529 154.179,325.648 153.918,325.648 153.598 C 325.648 153.279,325.773 152.793,325.926 152.518 C 326.079 152.242,326.687 150.850,327.279 149.424 C 327.870 147.997,328.491 146.735,328.658 146.618 C 328.847 146.487,328.853 146.403,328.674 146.398 C 328.516 146.393,328.540 146.291,328.729 146.171 C 328.917 146.051,329.134 145.608,329.211 145.186 C 329.287 144.764,329.539 143.988,329.771 143.463 C 330.002 142.937,330.352 142.086,330.549 141.571 C 330.745 141.055,331.011 140.634,331.139 140.634 C 331.388 140.634,331.227 141.256,330.308 143.852 C 329.991 144.750,329.792 145.546,329.868 145.622 C 329.943 145.697,329.814 146.216,329.580 146.775 C 329.347 147.334,329.213 147.849,329.283 147.919 C 329.354 147.989,329.257 148.421,329.068 148.879 C 328.880 149.337,328.745 149.805,328.769 149.918 C 328.792 150.031,328.672 150.485,328.501 150.927 C 328.331 151.368,328.144 151.962,328.087 152.246 C 327.959 152.879,327.402 154.646,327.024 155.620 C 326.870 156.016,326.695 156.719,326.636 157.183 C 326.576 157.646,326.395 158.159,326.232 158.321 C 326.070 158.484,325.937 158.980,325.937 159.424 C 325.937 159.867,325.799 160.231,325.631 160.231 C 325.464 160.231,325.410 160.366,325.512 160.531 C 325.614 160.697,325.566 160.992,325.404 161.187 C 325.242 161.382,325.047 161.928,324.970 162.399 C 324.894 162.871,324.805 163.321,324.773 163.401 C 324.742 163.480,324.731 163.642,324.750 163.761 C 324.769 163.880,324.647 163.977,324.479 163.977 C 324.311 163.977,324.248 164.098,324.339 164.245 C 324.430 164.393,324.385 164.588,324.237 164.679 C 324.090 164.770,323.869 165.395,323.745 166.068 C 323.622 166.741,323.506 167.356,323.488 167.435 C 323.115 169.049,322.963 169.452,322.727 169.452 C 322.571 169.452,322.510 169.559,322.591 169.689 C 322.671 169.819,322.572 170.244,322.370 170.633 C 322.168 171.022,322.056 171.499,322.121 171.693 C 322.185 171.887,322.112 172.046,321.958 172.046 C 321.804 172.046,321.696 172.208,321.718 172.406 C 321.782 172.988,320.061 178.098,319.800 178.098 C 319.669 178.098,319.641 178.225,319.737 178.380 C 319.833 178.535,319.748 178.957,319.549 179.317 C 319.349 179.677,319.212 180.064,319.244 180.177 C 319.276 180.291,319.152 180.745,318.969 181.186 C 318.786 181.627,318.614 182.053,318.588 182.133 C 318.561 182.212,318.405 182.601,318.240 182.997 C 318.076 183.393,317.849 184.139,317.737 184.654 C 317.625 185.169,317.446 185.591,317.340 185.591 C 317.234 185.591,317.127 185.932,317.103 186.349 C 317.079 186.766,316.884 187.218,316.671 187.353 C 316.457 187.488,316.396 187.601,316.534 187.604 C 316.672 187.606,316.624 187.803,316.427 188.040 C 316.229 188.278,316.153 188.473,316.257 188.473 C 316.362 188.473,316.281 188.764,316.078 189.121 C 315.875 189.478,315.696 189.899,315.681 190.058 C 315.604 190.861,315.179 191.931,314.937 191.931 C 314.787 191.931,314.747 192.066,314.849 192.232 C 314.952 192.397,314.916 192.689,314.770 192.880 C 314.623 193.071,314.276 193.973,313.997 194.885 C 313.719 195.796,313.366 196.542,313.213 196.542 C 313.060 196.542,313.003 196.652,313.086 196.788 C 313.277 197.096,312.633 198.847,312.329 198.847 C 312.205 198.847,312.104 199.119,312.104 199.452 C 312.104 199.785,311.896 200.530,311.642 201.109 C 310.910 202.777,310.724 203.244,310.336 204.395 C 310.135 204.989,309.859 205.476,309.723 205.476 C 309.587 205.476,309.551 205.596,309.642 205.744 C 309.733 205.891,309.674 206.095,309.510 206.196 C 309.346 206.297,309.287 206.501,309.378 206.648 C 309.469 206.796,309.399 206.916,309.222 206.916 C 309.045 206.916,308.974 207.037,309.066 207.185 C 309.157 207.332,309.097 207.536,308.934 207.637 C 308.770 207.738,308.711 207.942,308.802 208.089 C 308.893 208.237,308.830 208.357,308.663 208.357 C 308.495 208.357,308.381 208.455,308.410 208.573 C 308.512 208.993,307.686 211.239,307.430 211.239 C 307.287 211.239,307.251 211.369,307.349 211.527 C 307.447 211.686,307.389 211.816,307.222 211.816 C 307.054 211.816,306.932 211.913,306.951 212.032 C 306.969 212.151,306.953 212.345,306.915 212.464 C 306.876 212.583,306.828 212.786,306.808 212.916 C 306.789 213.046,306.497 213.727,306.160 214.429 C 305.457 215.896,304.822 217.337,304.740 217.651 C 304.708 217.770,304.651 217.932,304.611 218.012 C 304.571 218.091,304.512 218.253,304.479 218.372 C 304.073 219.848,303.932 220.173,303.698 220.173 C 303.547 220.173,303.498 220.292,303.588 220.438 C 303.678 220.584,303.556 220.899,303.317 221.138 C 303.078 221.377,302.882 221.772,302.882 222.017 C 302.882 222.261,302.635 222.951,302.334 223.550 C 302.033 224.149,301.563 225.159,301.290 225.793 C 300.757 227.032,300.064 228.550,298.437 232.038 C 297.870 233.254,297.406 234.389,297.406 234.560 C 297.406 234.731,297.277 234.870,297.118 234.870 C 296.960 234.870,296.830 235.086,296.830 235.349 C 296.830 235.613,296.524 236.358,296.151 237.006 C 295.778 237.654,295.241 238.800,294.959 239.553 C 294.677 240.306,294.334 240.922,294.197 240.922 C 294.060 240.922,293.948 241.138,293.948 241.403 C 293.948 241.667,293.161 243.369,292.198 245.186 C 289.964 249.404,290.061 249.210,289.467 250.648 C 289.189 251.322,288.851 251.873,288.717 251.873 C 288.583 251.873,288.500 251.970,288.534 252.089 C 288.568 252.208,288.412 252.630,288.187 253.026 C 287.963 253.422,287.750 253.928,287.713 254.150 C 287.676 254.372,287.476 254.662,287.267 254.794 C 287.058 254.926,286.992 255.036,287.120 255.039 C 287.429 255.045,286.401 256.772,286.088 256.772 C 285.954 256.772,285.925 256.902,286.023 257.061 C 286.121 257.219,286.064 257.349,285.896 257.349 C 285.728 257.349,285.591 257.591,285.591 257.886 C 285.591 258.182,285.326 258.761,285.001 259.173 C 284.677 259.585,284.422 259.994,284.434 260.082 C 284.446 260.169,284.143 260.790,283.760 261.461 C 282.774 263.187,282.206 264.287,281.828 265.202 C 281.647 265.638,281.383 265.994,281.240 265.994 C 281.097 265.994,280.980 266.228,280.980 266.513 C 280.980 266.798,280.865 267.155,280.724 267.305 C 280.584 267.456,279.979 268.487,279.381 269.597 C 278.783 270.706,278.055 271.923,277.763 272.301 C 277.472 272.679,277.233 273.123,277.233 273.287 C 277.233 273.451,277.013 273.829,276.744 274.127 C 276.475 274.424,276.230 274.823,276.200 275.014 C 276.129 275.470,272.338 281.879,271.849 282.369 C 271.640 282.579,271.470 282.935,271.470 283.162 C 271.470 283.388,271.332 283.573,271.165 283.573 C 270.997 283.573,270.940 283.703,271.037 283.862 C 271.135 284.020,271.078 284.150,270.910 284.150 C 270.743 284.150,270.605 284.344,270.605 284.582 C 270.605 284.820,270.468 285.014,270.300 285.014 C 270.132 285.014,270.060 285.120,270.140 285.250 C 270.221 285.380,270.001 285.806,269.653 286.197 C 269.305 286.589,268.977 287.097,268.925 287.328 C 268.873 287.558,268.678 287.840,268.493 287.955 C 268.307 288.070,268.147 288.265,268.137 288.390 C 268.102 288.805,267.007 290.486,266.770 290.488 C 266.642 290.489,266.617 290.620,266.715 290.778 C 266.813 290.937,266.748 291.066,266.571 291.066 C 266.393 291.066,266.322 291.185,266.411 291.330 C 266.501 291.475,266.465 291.637,266.333 291.690 C 266.200 291.743,265.545 292.727,264.877 293.876 C 264.210 295.025,263.532 295.965,263.371 295.965 C 263.210 295.965,263.149 296.080,263.236 296.221 C 263.323 296.361,263.201 296.637,262.965 296.833 C 262.729 297.028,262.536 297.367,262.536 297.586 C 262.536 297.804,262.406 297.983,262.248 297.983 C 262.089 297.983,261.960 298.098,261.960 298.238 C 261.960 298.644,259.886 301.729,259.613 301.729 C 259.477 301.729,259.366 301.924,259.366 302.161 C 259.366 302.399,259.229 302.594,259.061 302.594 C 258.893 302.594,258.828 302.710,258.916 302.853 C 259.004 302.995,258.754 303.417,258.361 303.789 C 257.968 304.162,257.645 304.629,257.642 304.827 C 257.639 305.025,257.507 305.187,257.349 305.187 C 257.190 305.187,257.061 305.382,257.061 305.620 C 257.061 305.857,256.923 306.052,256.755 306.052 C 256.587 306.052,256.520 306.165,256.606 306.304 C 256.691 306.442,256.453 306.888,256.077 307.295 C 255.700 307.701,255.465 308.106,255.554 308.195 C 255.643 308.285,255.564 308.357,255.379 308.357 C 255.195 308.357,255.043 308.538,255.043 308.759 C 255.043 308.980,254.840 309.238,254.593 309.333 C 254.345 309.428,254.209 309.614,254.291 309.747 C 254.373 309.879,254.061 310.403,253.598 310.910 C 253.134 311.417,252.747 311.925,252.736 312.040 C 252.725 312.154,252.463 312.540,252.153 312.896 C 251.843 313.253,251.673 313.545,251.775 313.545 C 251.878 313.545,251.714 313.772,251.411 314.049 C 251.108 314.326,250.676 314.913,250.450 315.352 C 250.224 315.792,249.674 316.561,249.227 317.061 C 248.781 317.562,248.415 318.070,248.415 318.191 C 248.415 318.313,247.969 318.898,247.424 319.493 C 246.879 320.088,246.498 320.679,246.577 320.806 C 246.656 320.933,246.583 321.037,246.415 321.037 C 246.247 321.037,246.110 321.181,246.110 321.356 C 246.110 321.719,244.467 323.892,243.808 324.400 C 243.568 324.586,243.361 324.845,243.347 324.977 C 243.281 325.606,242.847 326.202,242.577 326.035 C 242.410 325.932,242.352 325.973,242.446 326.126 C 242.541 326.279,242.176 326.915,241.635 327.539 C 241.095 328.164,240.518 328.831,240.355 329.022 C 240.191 329.214,240.058 329.446,240.058 329.539 C 240.058 329.732,239.652 330.233,238.595 331.349 C 238.186 331.780,237.861 332.197,237.872 332.277 C 237.893 332.434,236.426 334.425,235.735 335.177 C 235.497 335.436,235.043 336.020,234.726 336.477 C 234.409 336.933,233.858 337.583,233.501 337.922 C 233.145 338.261,232.853 338.633,232.853 338.748 C 232.853 338.936,232.228 339.683,230.764 341.248 C 230.486 341.544,230.353 341.787,230.468 341.787 C 230.582 341.787,230.258 342.168,229.747 342.635 C 229.236 343.102,228.818 343.602,228.818 343.748 C 228.818 343.893,228.258 344.614,227.574 345.349 C 226.889 346.084,226.402 346.686,226.493 346.686 C 226.583 346.686,226.300 346.993,225.865 347.368 C 225.429 347.743,225.072 348.130,225.072 348.227 C 225.072 348.431,223.947 349.755,222.488 351.269 C 221.939 351.839,221.485 352.403,221.479 352.523 C 221.474 352.642,221.125 353.096,220.704 353.531 C 218.338 355.976,217.579 356.814,217.579 356.983 C 217.579 357.086,217.061 357.655,216.427 358.246 C 215.793 358.837,215.274 359.418,215.274 359.537 C 215.274 359.656,214.593 360.444,213.761 361.288 C 212.929 362.133,211.340 363.816,210.231 365.030 C 207.573 367.938,192.507 383.115,192.507 382.885 C 192.507 382.787,191.567 383.647,190.418 384.797 C 187.957 387.260,186.221 388.761,185.834 388.761 C 185.682 388.761,185.637 388.890,185.735 389.049 C 185.833 389.207,185.808 389.338,185.680 389.339 C 185.341 389.340,183.573 391.046,183.573 391.372 C 183.573 391.524,183.826 391.865,184.135 392.129 C 184.444 392.394,184.631 392.717,184.550 392.847 C 184.470 392.977,184.541 393.084,184.709 393.084 C 184.877 393.084,185.014 393.264,185.014 393.485 C 185.014 393.706,185.210 393.962,185.449 394.053 C 185.688 394.145,186.042 394.580,186.235 395.021 C 186.428 395.461,186.836 396.048,187.141 396.326 C 187.446 396.603,187.618 396.830,187.522 396.830 C 187.426 396.830,187.990 397.510,188.775 398.342 C 189.560 399.174,190.202 399.926,190.202 400.014 C 190.202 400.308,197.142 407.205,197.437 407.205 C 197.597 407.205,197.648 407.334,197.550 407.493 C 197.452 407.651,197.514 407.781,197.687 407.781 C 197.860 407.781,198.419 408.178,198.929 408.664 C 200.664 410.317,200.973 410.560,200.741 410.086 C 200.625 409.849,200.851 410.003,201.244 410.428 C 201.637 410.854,202.011 411.149,202.076 411.084 C 202.141 411.020,202.588 411.320,203.069 411.751 C 203.551 412.183,204.397 412.772,204.950 413.060 C 205.503 413.348,206.269 413.872,206.652 414.224 C 207.035 414.575,207.770 415.036,208.285 415.248 C 208.800 415.459,209.222 415.746,209.222 415.885 C 209.222 416.024,209.416 416.138,209.654 416.138 C 209.892 416.138,210.086 416.276,210.086 416.444 C 210.086 416.611,210.205 416.675,210.350 416.586 C 210.495 416.496,210.982 416.732,211.431 417.110 C 211.880 417.488,212.313 417.817,212.392 417.841 C 212.471 417.864,212.828 417.960,213.184 418.053 C 213.541 418.147,213.833 418.359,213.833 418.525 C 213.833 418.692,213.915 418.745,214.016 418.644 C 214.117 418.543,214.559 418.716,214.998 419.029 C 215.436 419.341,215.894 419.597,216.014 419.597 C 216.464 419.597,218.444 420.581,218.444 420.805 C 218.444 420.933,218.699 421.037,219.010 421.037 C 219.644 421.037,221.705 421.926,221.855 422.264 C 221.908 422.384,222.070 422.409,222.215 422.319 C 222.360 422.229,222.478 422.294,222.478 422.461 C 222.478 422.629,222.576 422.751,222.695 422.732 C 222.813 422.714,222.976 422.723,223.055 422.754 C 223.134 422.784,223.519 422.868,223.910 422.940 C 224.301 423.011,224.884 423.241,225.206 423.449 C 225.529 423.658,226.143 423.915,226.572 424.020 C 227.001 424.126,227.714 424.361,228.157 424.542 C 228.600 424.723,229.219 424.921,229.533 424.980 C 229.846 425.040,230.229 425.215,230.383 425.368 C 230.537 425.522,230.953 425.648,231.309 425.648 C 231.664 425.648,232.035 425.778,232.133 425.937 C 232.231 426.095,232.666 426.225,233.101 426.225 C 233.535 426.225,234.019 426.354,234.177 426.511 C 234.335 426.669,234.814 426.827,235.243 426.862 C 235.672 426.898,236.023 427.036,236.023 427.169 C 236.023 427.302,236.140 427.339,236.283 427.251 C 236.426 427.163,237.366 427.333,238.372 427.629 C 239.378 427.926,240.980 428.339,241.931 428.548 C 242.882 428.757,243.725 428.944,243.804 428.962 C 243.883 428.981,244.532 429.101,245.245 429.228 C 245.958 429.356,246.671 429.558,246.830 429.678 C 246.988 429.797,247.524 429.903,248.021 429.913 C 248.517 429.923,249.461 430.076,250.119 430.252 C 250.776 430.429,251.861 430.633,252.530 430.705 C 253.199 430.776,254.200 430.903,254.755 430.986 C 259.734 431.732,272.859 431.716,277.574 430.957 C 278.259 430.847,279.043 430.734,279.317 430.706 C 279.591 430.678,279.904 430.566,280.013 430.457 C 280.122 430.348,280.717 430.259,281.335 430.259 C 281.953 430.259,282.677 430.144,282.944 430.003 C 283.211 429.863,283.948 429.680,284.582 429.597 C 285.216 429.515,286.701 429.184,287.881 428.863 C 289.061 428.541,290.131 428.343,290.258 428.421 C 290.386 428.500,290.490 428.441,290.490 428.291 C 290.490 428.141,290.976 427.916,291.571 427.792 C 292.165 427.668,292.716 427.549,292.795 427.528 C 292.875 427.506,293.393 427.382,293.947 427.251 C 294.501 427.120,295.344 426.845,295.820 426.640 C 297.062 426.105,297.796 425.832,298.127 425.782 C 298.285 425.758,298.804 425.565,299.280 425.353 C 299.755 425.141,300.369 424.944,300.643 424.915 C 300.918 424.886,301.319 424.717,301.534 424.538 C 301.750 424.359,302.012 424.298,302.116 424.402 C 302.220 424.506,302.305 424.433,302.305 424.239 C 302.305 424.044,302.424 423.959,302.569 424.048 C 302.714 424.138,302.876 424.110,302.929 423.987 C 302.982 423.864,303.934 423.399,305.043 422.954 C 306.153 422.509,307.255 422.026,307.493 421.880 C 308.590 421.209,310.808 420.173,311.149 420.173 C 311.357 420.173,311.527 420.036,311.527 419.868 C 311.527 419.700,311.657 419.643,311.816 419.741 C 311.974 419.839,312.104 419.796,312.104 419.646 C 312.104 419.391,313.705 418.498,314.203 418.475 C 314.328 418.469,314.629 418.265,314.872 418.022 C 315.116 417.778,315.500 417.579,315.727 417.579 C 315.953 417.579,316.138 417.442,316.138 417.274 C 316.138 417.106,316.254 417.041,316.396 417.128 C 316.538 417.216,316.729 417.094,316.820 416.857 C 316.910 416.620,317.189 416.427,317.439 416.427 C 317.688 416.427,318.243 416.102,318.670 415.705 C 319.098 415.309,319.859 414.849,320.361 414.683 C 320.864 414.517,321.350 414.185,321.442 413.945 C 321.534 413.705,321.740 413.589,321.900 413.688 C 322.060 413.786,322.190 413.730,322.190 413.562 C 322.190 413.394,322.356 413.256,322.559 413.256 C 322.762 413.256,323.114 412.997,323.343 412.680 C 323.571 412.363,323.913 412.104,324.103 412.104 C 324.293 412.104,324.491 412.006,324.544 411.888 C 324.666 411.613,326.801 410.010,326.801 410.194 C 326.801 410.269,327.176 409.984,327.634 409.560 C 328.874 408.412,329.339 408.069,329.657 408.069 C 329.814 408.069,330.046 407.907,330.173 407.709 C 330.469 407.246,334.180 404.035,334.419 404.035 C 334.518 404.035,335.002 403.576,335.494 403.016 C 335.986 402.456,336.446 402.056,336.516 402.126 C 336.689 402.299,345.821 393.092,345.821 392.746 C 345.821 392.596,345.983 392.566,346.182 392.680 C 346.380 392.795,346.440 392.776,346.316 392.640 C 346.192 392.504,346.611 391.867,347.247 391.225 C 349.535 388.914,351.297 386.904,351.297 386.602 C 351.297 386.433,351.524 386.081,351.801 385.819 C 352.376 385.277,352.483 385.142,353.991 383.069 C 354.597 382.237,355.195 381.556,355.321 381.556 C 355.447 381.556,355.711 381.167,355.908 380.692 C 356.105 380.216,356.353 379.827,356.460 379.827 C 356.566 379.827,357.231 378.921,357.938 377.813 C 358.644 376.705,359.319 375.797,359.438 375.795 C 359.557 375.794,359.654 375.616,359.654 375.400 C 359.654 375.183,359.961 374.697,360.336 374.319 C 360.711 373.941,361.108 373.339,361.220 372.983 C 361.331 372.626,361.543 372.334,361.691 372.334 C 361.839 372.334,361.960 372.171,361.960 371.971 C 361.960 371.771,362.276 371.267,362.663 370.849 C 363.050 370.432,363.288 370.012,363.191 369.916 C 363.095 369.819,363.175 369.741,363.370 369.741 C 363.564 369.741,363.643 369.611,363.545 369.452 C 363.447 369.294,363.483 369.164,363.625 369.164 C 363.768 369.164,364.036 368.872,364.222 368.516 C 364.408 368.159,364.812 367.478,365.120 367.003 C 365.428 366.527,365.906 365.684,366.183 365.130 C 366.459 364.575,366.821 364.026,366.988 363.909 C 367.177 363.777,367.183 363.692,367.003 363.684 C 366.844 363.677,366.950 363.492,367.238 363.274 C 367.526 363.055,367.753 362.800,367.743 362.706 C 367.682 362.166,367.794 361.920,368.469 361.117 C 368.880 360.630,369.137 360.231,369.042 360.231 C 368.818 360.231,370.958 356.159,371.789 355.001 C 371.977 354.741,372.100 354.431,372.063 354.313 C 372.027 354.195,372.141 354.010,372.316 353.902 C 372.492 353.793,372.689 353.431,372.753 353.097 C 372.817 352.763,373.194 351.909,373.590 351.200 C 373.986 350.491,374.233 349.833,374.139 349.739 C 374.044 349.645,374.119 349.568,374.304 349.568 C 374.488 349.568,374.640 349.318,374.640 349.012 C 374.640 348.706,374.812 348.284,375.023 348.072 C 375.234 347.861,375.503 347.301,375.619 346.827 C 375.736 346.353,376.047 345.641,376.311 345.245 C 376.805 344.502,377.222 343.506,378.029 341.138 C 378.286 340.385,378.609 339.769,378.746 339.769 C 378.884 339.769,378.916 339.640,378.818 339.481 C 378.720 339.323,378.785 339.193,378.963 339.193 C 379.140 339.193,379.210 339.072,379.119 338.925 C 379.028 338.777,379.087 338.574,379.251 338.473 C 379.414 338.371,379.474 338.168,379.383 338.020 C 379.291 337.873,379.326 337.752,379.461 337.752 C 379.595 337.752,379.726 337.462,379.753 337.108 C 379.780 336.754,379.938 336.418,380.104 336.363 C 380.271 336.307,380.330 336.138,380.236 335.986 C 380.142 335.834,380.195 335.553,380.352 335.362 C 380.589 335.074,381.678 332.310,381.965 331.268 C 382.008 331.110,382.194 330.615,382.376 330.169 C 382.559 329.722,382.709 329.171,382.709 328.944 C 382.709 328.716,382.810 328.530,382.934 328.530 C 383.058 328.530,383.189 328.174,383.225 327.738 C 383.261 327.302,383.420 326.902,383.578 326.849 C 383.736 326.795,383.799 326.644,383.717 326.513 C 383.636 326.381,383.722 325.906,383.908 325.456 C 384.093 325.007,384.273 324.543,384.306 324.424 C 384.339 324.305,384.392 324.175,384.423 324.135 C 384.455 324.096,384.537 323.762,384.605 323.393 C 384.673 323.025,384.886 322.441,385.077 322.096 C 385.268 321.752,385.399 321.377,385.367 321.264 C 385.335 321.150,385.449 320.696,385.621 320.255 C 385.792 319.814,385.987 319.164,386.054 318.812 C 386.121 318.459,386.326 317.811,386.510 317.371 C 386.694 316.931,386.880 316.268,386.923 315.898 C 386.966 315.528,387.153 315.042,387.340 314.818 C 387.526 314.593,387.596 314.409,387.495 314.409 C 387.395 314.409,387.514 313.925,387.762 313.333 C 388.156 312.389,388.399 311.384,388.530 310.159 C 388.551 309.960,388.668 309.798,388.790 309.798 C 388.911 309.798,389.000 309.428,388.987 308.975 C 388.974 308.523,389.077 307.971,389.215 307.750 C 389.353 307.529,389.505 307.024,389.552 306.628 C 389.598 306.232,389.843 305.259,390.095 304.467 C 390.555 303.019,390.603 302.803,390.911 300.761 C 391.004 300.150,391.189 299.436,391.322 299.176 C 391.456 298.916,391.507 298.541,391.436 298.343 C 391.365 298.145,391.443 297.983,391.610 297.983 C 391.776 297.983,391.837 297.787,391.745 297.547 C 391.653 297.307,391.698 296.950,391.844 296.754 C 391.991 296.558,392.093 296.203,392.072 295.965 C 392.050 295.728,392.193 295.122,392.390 294.620 C 392.586 294.118,392.677 293.637,392.591 293.552 C 392.506 293.466,392.537 293.164,392.660 292.880 C 392.783 292.596,392.858 292.148,392.826 291.884 C 392.794 291.621,392.898 291.325,393.057 291.227 C 393.216 291.128,393.273 290.856,393.183 290.621 C 393.093 290.386,393.174 290.007,393.364 289.778 C 393.554 289.550,393.636 289.244,393.547 289.099 C 393.458 288.955,393.651 287.490,393.976 285.845 C 394.302 284.199,394.607 282.594,394.654 282.277 C 394.701 281.960,394.762 281.700,394.790 281.700 C 394.819 281.700,394.906 281.117,394.984 280.403 C 395.152 278.865,395.295 277.954,395.369 277.954 C 395.437 277.954,395.717 275.785,395.722 275.216 C 395.724 274.978,395.795 274.589,395.881 274.352 C 395.966 274.114,396.074 273.530,396.120 273.055 C 396.422 269.977,396.552 268.921,396.722 268.156 C 396.827 267.680,396.947 266.902,396.988 266.427 C 397.067 265.514,397.226 264.001,397.517 261.383 C 397.689 259.837,397.762 259.054,398.125 254.899 C 398.222 253.790,398.372 252.298,398.459 251.585 C 398.546 250.872,398.669 249.380,398.731 248.271 C 398.794 247.161,398.904 245.346,398.977 244.236 C 399.899 230.091,400.026 209.864,399.281 195.965 C 399.200 194.460,399.058 191.736,398.966 189.914 C 398.874 188.091,398.740 185.692,398.668 184.582 C 398.597 183.473,398.472 181.527,398.392 180.259 C 398.242 177.904,398.102 176.118,397.827 173.055 C 397.742 172.104,397.615 170.612,397.545 169.741 C 397.475 168.869,397.359 167.767,397.287 167.291 C 397.216 166.816,397.069 165.454,396.962 164.265 C 396.855 163.076,396.721 161.650,396.664 161.095 C 396.338 157.917,396.218 156.829,396.107 156.052 C 396.040 155.576,395.921 154.604,395.843 153.890 C 395.766 153.177,395.513 151.102,395.281 149.280 C 395.050 147.457,394.860 145.771,394.859 145.533 C 394.858 145.295,394.713 144.284,394.538 143.286 C 394.363 142.288,394.290 141.357,394.377 141.217 C 394.463 141.077,394.399 140.878,394.233 140.776 C 394.068 140.674,393.937 140.179,393.942 139.676 C 393.947 139.173,393.875 138.307,393.781 137.752 C 393.687 137.197,393.570 136.290,393.522 135.735 C 393.474 135.180,393.402 134.726,393.363 134.726 C 393.323 134.726,393.253 134.272,393.205 133.718 C 393.158 133.163,392.988 132.190,392.828 131.556 C 392.668 130.922,392.578 130.144,392.629 129.827 C 392.680 129.510,392.628 129.121,392.513 128.963 C 392.319 128.695,391.631 124.409,391.517 122.757 C 391.489 122.356,391.393 121.902,391.304 121.749 C 391.214 121.595,391.182 121.215,391.231 120.903 C 391.281 120.592,391.210 120.203,391.074 120.039 C 390.938 119.875,390.824 119.642,390.820 119.522 C 390.813 119.327,390.729 118.725,390.343 116.138 C 390.104 114.531,389.887 113.342,389.636 112.248 C 389.490 111.614,389.375 110.901,389.380 110.663 C 389.385 110.425,389.128 109.063,388.808 107.637 C 388.488 106.210,388.149 104.283,388.054 103.353 C 387.959 102.424,387.749 101.416,387.587 101.114 C 387.426 100.812,387.375 100.432,387.475 100.270 C 387.576 100.107,387.506 99.792,387.320 99.568 C 387.134 99.344,387.069 99.020,387.176 98.847 C 387.282 98.675,387.247 98.377,387.098 98.186 C 386.810 97.818,386.021 94.053,385.758 91.787 C 385.721 91.470,385.545 90.756,385.368 90.202 C 385.062 89.242,384.763 87.744,384.564 86.167 C 384.514 85.771,384.345 85.025,384.188 84.510 C 384.031 83.995,383.962 83.573,384.036 83.573 C 384.110 83.573,384.039 83.328,383.878 83.028 C 383.718 82.729,383.510 81.983,383.416 81.371 C 383.155 79.676,383.051 79.113,382.985 79.035 C 382.952 78.995,382.907 78.736,382.885 78.458 C 382.862 78.181,382.753 77.810,382.641 77.635 C 382.529 77.460,382.369 76.766,382.284 76.093 C 382.200 75.420,382.073 74.776,382.002 74.662 C 381.932 74.549,381.803 74.108,381.715 73.683 C 381.628 73.258,381.487 72.575,381.402 72.165 C 381.317 71.755,381.060 70.701,380.832 69.822 C 380.603 68.944,380.485 68.112,380.571 67.974 C 380.656 67.836,380.580 67.723,380.402 67.723 C 380.225 67.723,380.109 67.496,380.146 67.219 C 380.183 66.942,379.989 65.974,379.715 65.069 C 379.441 64.165,379.201 63.127,379.183 62.764 C 379.164 62.401,379.029 61.945,378.883 61.751 C 378.736 61.557,378.617 60.941,378.617 60.382 C 378.617 59.823,378.512 59.366,378.384 59.366 C 378.257 59.366,378.220 59.107,378.303 58.790 C 378.386 58.473,378.321 58.213,378.159 58.213 C 377.996 58.213,377.932 57.954,378.014 57.637 C 378.097 57.320,378.033 57.061,377.870 57.061 C 377.708 57.061,377.643 56.801,377.726 56.484 C 377.809 56.167,377.744 55.908,377.582 55.908 C 377.420 55.908,377.355 55.648,377.438 55.331 C 377.521 55.014,377.456 54.755,377.294 54.755 C 377.132 54.755,377.067 54.496,377.150 54.179 C 377.233 53.862,377.168 53.602,377.006 53.602 C 376.844 53.602,376.779 53.343,376.862 53.026 C 376.946 52.704,376.871 52.450,376.691 52.450 C 376.514 52.450,376.369 52.003,376.369 51.458 C 376.369 50.913,376.256 50.397,376.119 50.312 C 375.911 50.183,375.662 49.240,375.352 47.406 C 375.325 47.248,375.169 46.794,375.005 46.398 C 374.841 46.001,374.768 45.574,374.843 45.448 C 374.917 45.323,374.826 45.037,374.640 44.813 C 374.454 44.589,374.380 44.279,374.476 44.125 C 374.571 43.970,374.517 43.762,374.356 43.663 C 374.195 43.563,374.063 43.108,374.063 42.651 C 374.063 42.195,373.932 41.739,373.771 41.640 C 373.609 41.540,373.556 41.332,373.651 41.178 C 373.747 41.023,373.668 40.708,373.477 40.477 C 373.285 40.246,373.214 40.058,373.318 40.058 C 373.422 40.058,373.376 39.813,373.216 39.513 C 373.056 39.214,372.894 38.566,372.856 38.072 C 372.819 37.579,372.672 37.176,372.530 37.176 C 372.389 37.176,372.341 36.997,372.425 36.779 C 372.509 36.560,372.450 36.254,372.294 36.098 C 372.138 35.942,371.998 35.407,371.984 34.910 C 371.970 34.413,371.870 34.006,371.762 34.006 C 371.654 34.006,371.545 33.844,371.520 33.646 C 371.395 32.648,371.257 32.042,370.938 31.094 C 370.746 30.523,370.534 29.810,370.468 29.509 C 370.403 29.208,370.224 28.551,370.071 28.048 C 369.918 27.544,369.868 27.058,369.959 26.967 C 370.050 26.876,370.001 26.801,369.850 26.801 C 369.699 26.801,369.558 26.573,369.537 26.294 C 369.474 25.455,369.321 24.937,369.085 24.762 C 368.961 24.671,368.832 24.185,368.796 23.682 C 368.761 23.179,368.613 22.767,368.468 22.767 C 368.323 22.767,368.284 22.686,368.382 22.589 C 368.480 22.491,368.312 21.757,368.008 20.959 C 367.705 20.160,367.519 19.406,367.595 19.283 C 367.671 19.161,367.592 18.973,367.420 18.867 C 367.248 18.761,367.174 18.501,367.255 18.289 C 367.336 18.078,367.273 17.861,367.113 17.808 C 366.954 17.755,366.812 17.293,366.798 16.781 C 366.783 16.269,366.683 15.850,366.575 15.850 C 366.467 15.850,366.364 15.688,366.347 15.490 C 366.295 14.879,366.131 14.279,365.929 13.957 C 365.823 13.787,365.658 13.268,365.562 12.804 C 365.339 11.725,365.285 11.546,364.897 10.602 C 364.721 10.172,364.526 9.524,364.466 9.161 C 364.405 8.798,364.206 8.138,364.024 7.694 C 363.841 7.250,363.628 6.524,363.550 6.081 C 363.472 5.638,363.210 4.802,362.969 4.224 C 362.727 3.646,362.531 3.107,362.533 3.027 C 362.535 2.947,362.526 2.849,362.514 2.810 C 362.502 2.770,362.449 2.543,362.397 2.305 C 362.345 2.068,362.180 1.554,362.030 1.163 L 361.757 0.454 361.387 1.145 " stroke="none" fill="#147c14" fill-rule="evenodd"></path><path id="path1" d="M363.724 6.923 C 364.160 8.213,364.406 8.464,364.141 7.349 C 364.028 6.873,363.812 6.357,363.661 6.203 C 363.509 6.048,363.537 6.372,363.724 6.923 M354.597 9.294 L 353.458 10.519 354.683 9.380 C 355.357 8.753,355.908 8.202,355.908 8.155 C 355.908 7.937,355.657 8.155,354.597 9.294 M364.594 9.510 C 364.594 9.748,364.705 10.202,364.841 10.519 C 364.998 10.882,365.089 10.935,365.089 10.663 C 365.089 10.425,364.978 9.971,364.841 9.654 C 364.685 9.291,364.594 9.238,364.594 9.510 M349.424 14.477 C 348.790 15.133,348.590 15.418,348.980 15.111 C 350.350 14.034,351.144 13.257,350.862 13.271 C 350.705 13.278,350.058 13.821,349.424 14.477 M346.618 17.029 L 345.677 17.919 346.758 17.139 C 347.352 16.709,347.839 16.309,347.839 16.248 C 347.839 15.980,347.494 16.200,346.618 17.029 M343.372 19.766 L 342.507 20.509 343.444 19.889 C 343.959 19.548,344.380 19.213,344.380 19.145 C 344.380 18.929,344.258 19.004,343.372 19.766 M334.830 25.953 C 334.186 26.514,334.183 26.529,334.782 26.240 C 335.130 26.071,335.494 25.805,335.592 25.647 C 335.875 25.188,335.564 25.313,334.830 25.953 M332.565 27.378 C 331.852 27.852,331.368 28.240,331.490 28.241 C 331.742 28.242,334.006 26.782,334.006 26.619 C 334.006 26.435,333.892 26.495,332.565 27.378 M309.798 39.193 C 309.244 39.497,308.919 39.745,309.078 39.745 C 309.236 39.745,309.820 39.497,310.375 39.193 C 310.929 38.889,311.254 38.641,311.095 38.641 C 310.937 38.641,310.353 38.889,309.798 39.193 M294.735 45.165 C 293.661 45.572,292.834 45.956,292.897 46.019 C 293.013 46.135,296.832 44.762,297.078 44.516 C 297.349 44.245,296.648 44.440,294.735 45.165 M290.346 46.840 C 289.625 47.187,289.601 47.227,290.202 47.080 C 291.018 46.881,291.936 46.413,291.499 46.419 C 291.340 46.422,290.821 46.611,290.346 46.840 M283.718 49.146 C 282.994 49.494,282.970 49.534,283.573 49.388 C 283.970 49.293,284.417 49.100,284.568 48.959 C 284.941 48.610,284.736 48.655,283.718 49.146 M278.746 50.729 C 277.749 51.131,277.978 51.307,279.035 50.951 C 279.550 50.777,280.025 50.589,280.091 50.534 C 280.326 50.336,279.385 50.473,278.746 50.729 M268.588 54.035 C 268.033 54.248,267.774 54.423,268.012 54.423 C 268.249 54.423,268.898 54.248,269.452 54.035 C 270.007 53.821,270.267 53.646,270.029 53.646 C 269.791 53.646,269.143 53.821,268.588 54.035 M263.112 55.764 C 262.558 55.977,262.298 56.152,262.536 56.152 C 262.774 56.152,263.422 55.977,263.977 55.764 C 264.532 55.550,264.791 55.375,264.553 55.375 C 264.316 55.375,263.667 55.550,263.112 55.764 M228.911 66.665 C 227.438 67.209,227.443 67.476,228.916 66.974 C 229.655 66.722,230.259 66.464,230.259 66.399 C 230.259 66.224,229.925 66.290,228.911 66.665 M224.496 68.156 C 223.465 68.527,222.761 68.841,222.931 68.854 C 223.377 68.886,226.031 67.980,226.354 67.685 C 226.712 67.359,226.688 67.365,224.496 68.156 M213.977 71.912 C 213.256 72.259,213.232 72.299,213.833 72.152 C 214.649 71.953,215.567 71.485,215.130 71.492 C 214.971 71.494,214.452 71.683,213.977 71.912 M211.293 72.819 C 210.610 73.061,210.101 73.310,210.164 73.372 C 210.295 73.504,212.968 72.626,212.968 72.451 C 212.968 72.271,212.640 72.343,211.293 72.819 M194.092 79.693 C 193.372 80.040,193.348 80.080,193.948 79.933 C 194.765 79.734,195.683 79.266,195.245 79.272 C 195.086 79.275,194.568 79.464,194.092 79.693 M191.499 80.817 C 190.706 81.198,190.138 81.521,190.237 81.533 C 190.501 81.567,193.084 80.399,193.084 80.246 C 193.084 80.055,193.069 80.060,191.499 80.817 M188.761 81.988 C 188.365 82.215,188.170 82.400,188.329 82.400 C 188.487 82.400,188.941 82.215,189.337 81.988 C 189.733 81.762,189.928 81.577,189.769 81.577 C 189.611 81.577,189.157 81.762,188.761 81.988 M185.879 83.285 C 185.324 83.589,184.974 83.843,185.101 83.850 C 185.406 83.866,187.032 83.020,187.032 82.846 C 187.032 82.657,187.015 82.663,185.879 83.285 M176.873 87.485 C 175.756 88.091,175.882 88.300,177.017 87.723 C 178.104 87.170,178.296 87.027,177.930 87.043 C 177.785 87.050,177.309 87.248,176.873 87.485 M168.588 91.787 C 168.192 92.013,167.997 92.199,168.156 92.199 C 168.314 92.199,168.768 92.013,169.164 91.787 C 169.561 91.560,169.755 91.375,169.597 91.375 C 169.438 91.375,168.984 91.560,168.588 91.787 M161.597 95.652 C 160.445 96.391,160.233 96.690,161.239 96.157 C 162.447 95.517,163.020 95.107,162.680 95.126 C 162.522 95.136,162.034 95.372,161.597 95.652 M147.550 104.349 C 147.072 104.740,147.024 104.838,147.406 104.640 C 148.346 104.154,148.867 103.755,148.559 103.757 C 148.401 103.758,147.947 104.024,147.550 104.349 M143.150 107.359 C 142.559 107.761,142.075 108.152,142.075 108.228 C 142.075 108.304,142.594 108.022,143.228 107.603 C 144.234 106.936,144.575 106.628,144.303 106.628 C 144.261 106.628,143.742 106.957,143.150 107.359 M140.778 109.103 L 139.914 109.846 140.850 109.226 C 141.365 108.885,141.787 108.550,141.787 108.482 C 141.787 108.266,141.665 108.341,140.778 109.103 M136.311 112.287 C 134.819 113.459,134.724 113.545,134.914 113.545 C 134.991 113.545,135.750 113.026,136.599 112.392 C 137.449 111.758,138.024 111.246,137.876 111.254 C 137.729 111.262,137.024 111.727,136.311 112.287 M126.203 120.389 L 125.504 121.182 126.369 120.461 C 126.844 120.065,127.287 119.708,127.354 119.669 C 127.420 119.629,127.345 119.597,127.188 119.597 C 127.030 119.597,126.587 119.953,126.203 120.389 M117.723 127.856 C 116.320 129.174,116.145 129.399,117.147 128.594 C 118.513 127.496,120.127 125.923,119.863 125.948 C 119.796 125.954,118.833 126.813,117.723 127.856 M106.772 138.617 C 106.485 138.934,106.396 139.193,106.573 139.193 C 106.751 139.193,107.035 138.934,107.205 138.617 C 107.374 138.300,107.464 138.040,107.404 138.040 C 107.343 138.040,107.059 138.300,106.772 138.617 M330.544 141.508 C 330.345 141.988,330.264 142.464,330.365 142.564 C 330.627 142.827,330.818 142.566,331.113 141.538 C 331.444 140.381,331.020 140.359,330.544 141.508 M100.993 145.086 C 100.685 145.474,99.868 146.479,99.178 147.320 C 97.948 148.818,97.955 148.814,99.547 147.118 C 101.007 145.562,101.916 144.380,101.651 144.380 C 101.598 144.380,101.301 144.698,100.993 145.086 M327.713 148.283 C 327.230 149.343,327.322 149.569,327.844 148.606 C 328.088 148.156,328.233 147.734,328.167 147.668 C 328.101 147.602,327.897 147.879,327.713 148.283 M395.168 148.415 C 395.168 148.970,395.227 149.197,395.300 148.919 C 395.372 148.642,395.372 148.188,395.300 147.911 C 395.227 147.633,395.168 147.860,395.168 148.415 M96.211 150.793 C 95.524 151.625,95.192 152.123,95.474 151.901 C 96.064 151.436,97.814 149.280,97.601 149.280 C 97.524 149.280,96.898 149.960,96.211 150.793 M326.848 150.301 C 326.365 151.360,326.457 151.586,326.979 150.623 C 327.223 150.173,327.369 149.751,327.303 149.685 C 327.237 149.619,327.032 149.896,326.848 150.301 M395.456 150.720 C 395.456 151.275,395.515 151.502,395.588 151.225 C 395.660 150.947,395.660 150.494,395.588 150.216 C 395.515 149.939,395.456 150.166,395.456 150.720 M324.831 154.911 C 324.348 155.971,324.440 156.197,324.962 155.234 C 325.206 154.784,325.351 154.362,325.286 154.296 C 325.220 154.230,325.015 154.507,324.831 154.911 M89.327 159.667 C 88.819 160.309,88.451 160.878,88.510 160.933 C 88.569 160.987,89.042 160.462,89.562 159.767 C 90.751 158.177,90.568 158.100,89.327 159.667 M86.155 163.994 C 85.810 164.478,85.576 164.923,85.635 164.982 C 85.694 165.040,86.033 164.644,86.389 164.100 C 87.193 162.875,87.011 162.792,86.155 163.994 M323.038 168.199 C 322.878 168.620,322.790 169.090,322.841 169.245 C 322.893 169.400,323.080 169.056,323.256 168.481 C 323.627 167.273,323.468 167.068,323.038 168.199 M81.450 170.965 L 80.932 171.902 81.526 171.182 C 82.053 170.543,82.286 170.029,82.051 170.029 C 82.006 170.029,81.735 170.450,81.450 170.965 M321.358 173.231 C 321.180 173.740,321.085 174.207,321.147 174.269 C 321.209 174.331,321.404 173.964,321.582 173.455 C 321.759 172.946,321.854 172.479,321.793 172.417 C 321.731 172.355,321.535 172.722,321.358 173.231 M78.280 175.786 C 77.863 176.417,77.522 177.029,77.522 177.147 C 77.522 177.265,77.696 177.106,77.910 176.793 C 78.848 175.418,79.307 174.640,79.178 174.640 C 79.102 174.640,78.698 175.156,78.280 175.786 M75.521 180.296 C 75.182 180.870,74.952 181.388,75.009 181.445 C 75.067 181.503,75.404 181.032,75.760 180.400 C 76.567 178.964,76.360 178.874,75.521 180.296 M318.780 180.965 C 318.612 181.449,318.535 181.844,318.610 181.844 C 318.805 181.844,319.348 180.347,319.206 180.205 C 319.140 180.139,318.949 180.482,318.780 180.965 M311.527 182.997 C 310.890 184.265,310.433 185.303,310.512 185.303 C 310.592 185.303,311.178 184.265,311.816 182.997 C 312.453 181.729,312.910 180.692,312.831 180.692 C 312.751 180.692,312.165 181.729,311.527 182.997 M398.645 184.438 C 398.645 185.310,398.699 185.666,398.765 185.231 C 398.832 184.795,398.832 184.081,398.765 183.646 C 398.699 183.210,398.645 183.566,398.645 184.438 M399.202 193.084 C 399.202 193.638,399.262 193.865,399.334 193.588 C 399.407 193.311,399.407 192.857,399.334 192.579 C 399.262 192.302,399.202 192.529,399.202 193.084 M306.196 193.372 C 305.950 193.847,305.814 194.236,305.893 194.236 C 305.972 194.236,306.238 193.847,306.484 193.372 C 306.730 192.896,306.866 192.507,306.787 192.507 C 306.708 192.507,306.442 192.896,306.196 193.372 M67.493 195.539 C 67.148 196.249,66.927 196.830,67.001 196.830 C 67.196 196.830,68.360 194.489,68.230 194.359 C 68.170 194.298,67.838 194.830,67.493 195.539 M311.576 200.562 C 311.407 201.045,311.330 201.441,311.405 201.441 C 311.600 201.441,312.144 199.944,312.001 199.801 C 311.936 199.736,311.744 200.078,311.576 200.562 M301.153 202.594 C 300.829 203.228,300.629 203.746,300.709 203.746 C 300.788 203.746,301.117 203.228,301.441 202.594 C 301.764 201.960,301.964 201.441,301.885 201.441 C 301.806 201.441,301.476 201.960,301.153 202.594 M399.506 202.738 C 399.508 203.530,399.564 203.820,399.630 203.382 C 399.697 202.944,399.695 202.296,399.626 201.941 C 399.558 201.587,399.504 201.945,399.506 202.738 M63.097 205.948 C 62.938 206.366,62.862 206.762,62.927 206.827 C 62.992 206.892,63.184 206.550,63.352 206.067 C 63.727 204.992,63.501 204.886,63.097 205.948 M60.545 213.283 C 60.350 213.933,60.244 214.518,60.308 214.583 C 60.373 214.648,60.586 214.169,60.781 213.518 C 60.976 212.868,61.082 212.283,61.017 212.218 C 60.952 212.153,60.740 212.632,60.545 213.283 M294.959 213.423 C 294.533 214.149,294.233 214.790,294.291 214.848 C 294.349 214.906,294.757 214.313,295.198 213.529 C 296.206 211.734,296.001 211.644,294.959 213.423 M399.779 212.968 C 399.779 213.523,399.838 213.750,399.910 213.473 C 399.983 213.195,399.983 212.741,399.910 212.464 C 399.838 212.187,399.779 212.414,399.779 212.968 M399.784 221.470 C 399.788 222.104,399.847 222.329,399.916 221.971 C 399.985 221.612,399.982 221.093,399.910 220.818 C 399.838 220.542,399.781 220.836,399.784 221.470 M289.159 223.127 C 288.167 224.810,288.102 224.954,288.607 224.352 C 289.193 223.654,289.697 222.767,289.508 222.767 C 289.433 222.767,289.276 222.929,289.159 223.127 M399.524 230.548 C 399.524 231.895,399.574 232.446,399.635 231.772 C 399.695 231.099,399.695 229.996,399.635 229.323 C 399.574 228.649,399.524 229.200,399.524 230.548 M283.151 232.734 C 282.883 233.144,282.712 233.529,282.773 233.590 C 282.834 233.650,283.111 233.315,283.389 232.844 C 284.010 231.793,283.824 231.707,283.151 232.734 M280.760 236.472 C 280.406 237.013,280.115 237.553,280.115 237.671 C 280.115 237.789,280.451 237.392,280.861 236.788 C 281.272 236.184,281.562 235.645,281.506 235.589 C 281.451 235.533,281.115 235.931,280.760 236.472 M296.166 236.459 C 295.902 237.012,295.746 237.464,295.819 237.464 C 296.016 237.464,296.891 235.699,296.759 235.568 C 296.696 235.505,296.429 235.906,296.166 236.459 M278.660 239.646 C 278.162 240.370,277.799 241.008,277.855 241.063 C 277.910 241.119,278.377 240.526,278.893 239.746 C 280.076 237.959,279.879 237.874,278.660 239.646 M292.568 243.959 C 291.903 245.300,291.421 246.398,291.497 246.398 C 291.689 246.398,294.009 241.752,293.881 241.624 C 293.824 241.567,293.233 242.618,292.568 243.959 M275.573 244.253 C 275.218 244.794,274.928 245.334,274.928 245.452 C 274.928 245.570,275.264 245.173,275.674 244.569 C 276.084 243.965,276.375 243.426,276.319 243.370 C 276.263 243.314,275.928 243.712,275.573 244.253 M270.963 251.009 C 270.307 251.960,269.860 252.736,269.971 252.734 C 270.082 252.732,270.443 252.311,270.772 251.798 C 271.102 251.284,271.603 250.508,271.886 250.072 C 272.868 248.560,272.150 249.289,270.963 251.009 M289.245 250.590 C 288.568 252.009,288.663 252.251,289.371 250.909 C 289.692 250.300,289.904 249.751,289.842 249.688 C 289.780 249.626,289.511 250.032,289.245 250.590 M55.110 255.331 C 55.110 255.886,55.169 256.113,55.242 255.836 C 55.314 255.558,55.314 255.104,55.242 254.827 C 55.169 254.550,55.110 254.777,55.110 255.331 M55.686 261.095 C 55.686 261.650,55.746 261.877,55.818 261.599 C 55.891 261.322,55.891 260.868,55.818 260.591 C 55.746 260.313,55.686 260.540,55.686 261.095 M263.238 261.865 C 262.795 262.447,262.579 262.832,262.759 262.721 C 263.127 262.493,264.375 260.807,264.175 260.807 C 264.104 260.807,263.682 261.283,263.238 261.865 M397.185 263.977 C 397.185 264.532,397.244 264.759,397.317 264.481 C 397.389 264.204,397.389 263.750,397.317 263.473 C 397.244 263.195,397.185 263.422,397.185 263.977 M260.751 265.346 C 260.244 265.937,259.863 266.571,260.015 266.571 C 260.074 266.571,260.410 266.182,260.761 265.706 C 261.456 264.767,261.449 264.533,260.751 265.346 M280.148 267.727 C 279.793 268.359,279.562 268.876,279.636 268.876 C 279.831 268.876,281.023 266.805,280.899 266.682 C 280.841 266.624,280.503 267.094,280.148 267.727 M257.346 269.810 C 256.503 271.078,256.438 271.313,257.166 270.461 C 257.808 269.710,258.096 269.164,257.850 269.164 C 257.809 269.164,257.582 269.455,257.346 269.810 M278.559 270.604 C 278.127 271.397,277.836 272.046,277.911 272.046 C 278.104 272.046,279.570 269.387,279.446 269.263 C 279.390 269.207,278.991 269.810,278.559 270.604 M253.445 274.946 C 252.705 275.906,252.147 276.735,252.203 276.786 C 252.259 276.838,252.925 276.052,253.681 275.039 C 254.438 274.027,254.997 273.199,254.923 273.199 C 254.849 273.199,254.184 273.985,253.445 274.946 M275.726 275.576 C 275.096 276.548,274.530 277.706,274.847 277.378 C 275.251 276.958,276.440 274.928,276.281 274.928 C 276.207 274.928,275.958 275.220,275.726 275.576 M274.266 278.026 C 274.200 278.145,273.782 278.890,273.337 279.683 C 272.892 280.476,272.661 280.994,272.825 280.836 C 273.242 280.432,274.728 277.810,274.540 277.810 C 274.455 277.810,274.332 277.907,274.266 278.026 M59.410 278.674 C 59.410 278.912,59.585 279.561,59.798 280.115 C 60.012 280.670,60.187 280.929,60.187 280.692 C 60.187 280.454,60.012 279.805,59.798 279.251 C 59.585 278.696,59.410 278.437,59.410 278.674 M249.856 279.539 C 249.354 280.173,249.008 280.692,249.087 280.692 C 249.166 280.692,249.642 280.173,250.144 279.539 C 250.646 278.905,250.992 278.386,250.913 278.386 C 250.834 278.386,250.358 278.905,249.856 279.539 M60.855 283.300 C 61.024 283.784,61.215 284.126,61.281 284.060 C 61.423 283.918,60.880 282.421,60.685 282.421 C 60.610 282.421,60.687 282.816,60.855 283.300 M245.240 285.375 C 243.634 287.322,243.149 288.025,244.185 286.903 C 245.290 285.709,246.763 283.862,246.611 283.862 C 246.543 283.862,245.926 284.543,245.240 285.375 M264.375 294.308 C 263.383 295.991,263.318 296.135,263.824 295.533 C 264.409 294.836,264.913 293.948,264.725 293.948 C 264.649 293.948,264.492 294.110,264.375 294.308 M235.879 296.542 C 235.423 297.017,235.172 297.399,235.321 297.390 C 235.575 297.375,237.060 295.677,236.819 295.677 C 236.758 295.677,236.335 296.066,235.879 296.542 M234.403 298.343 C 233.552 299.314,233.054 300.000,233.202 300.000 C 233.274 300.000,233.750 299.481,234.259 298.847 C 235.248 297.616,235.349 297.263,234.403 298.343 M260.629 300.072 C 259.637 301.755,259.572 301.899,260.077 301.297 C 260.663 300.599,261.167 299.712,260.978 299.712 C 260.903 299.712,260.745 299.874,260.629 300.072 M231.826 301.346 C 231.382 301.928,231.167 302.313,231.346 302.202 C 231.715 301.974,232.963 300.288,232.763 300.288 C 232.692 300.288,232.270 300.764,231.826 301.346 M73.162 307.637 C 73.317 307.954,73.656 308.473,73.914 308.790 L 74.383 309.366 74.100 308.790 C 73.945 308.473,73.606 307.954,73.348 307.637 L 72.879 307.061 73.162 307.637 M223.757 310.447 L 222.911 311.383 223.847 310.537 C 224.362 310.071,224.784 309.650,224.784 309.600 C 224.784 309.378,224.546 309.574,223.757 310.447 M218.880 315.769 L 218.374 316.571 219.041 315.930 C 219.408 315.578,219.636 315.217,219.548 315.129 C 219.459 315.040,219.159 315.328,218.880 315.769 M217.129 317.651 L 216.282 318.588 217.219 317.741 C 217.734 317.276,218.156 316.854,218.156 316.805 C 218.156 316.582,217.918 316.778,217.129 317.651 M386.229 318.056 C 386.051 318.635,386.020 318.991,386.160 318.848 C 386.442 318.560,386.880 317.003,386.679 317.003 C 386.609 317.003,386.407 317.477,386.229 318.056 M245.029 322.642 C 244.514 323.331,244.092 323.984,244.092 324.093 C 244.092 324.201,244.559 323.679,245.129 322.932 C 245.699 322.185,246.121 321.533,246.066 321.482 C 246.011 321.431,245.544 321.953,245.029 322.642 M212.376 322.695 L 211.383 323.775 212.464 322.782 C 213.470 321.858,213.677 321.614,213.457 321.614 C 213.409 321.614,212.923 322.100,212.376 322.695 M384.775 322.752 C 384.606 323.235,384.529 323.631,384.604 323.631 C 384.799 323.631,385.343 322.134,385.200 321.991 C 385.135 321.926,384.943 322.268,384.775 322.752 M383.846 325.544 C 383.687 325.963,383.611 326.358,383.676 326.424 C 383.742 326.489,383.933 326.147,384.102 325.663 C 384.476 324.588,384.250 324.483,383.846 325.544 M242.465 326.153 C 241.450 327.429,240.888 328.420,241.770 327.378 C 242.681 326.301,243.571 325.072,243.440 325.072 C 243.376 325.072,242.938 325.558,242.465 326.153 M92.058 329.893 C 92.841 330.721,93.543 331.337,93.619 331.261 C 93.694 331.186,93.700 331.091,93.631 331.052 C 93.562 331.012,92.859 330.396,92.070 329.683 L 90.634 328.387 92.058 329.893 M202.876 332.205 L 200.144 335.014 202.954 332.282 C 204.499 330.780,205.764 329.515,205.764 329.473 C 205.764 329.264,205.414 329.595,202.876 332.205 M94.938 332.488 C 95.562 333.158,96.135 333.645,96.211 333.568 C 96.287 333.492,96.294 333.397,96.226 333.357 C 96.159 333.318,95.586 332.832,94.954 332.277 L 93.804 331.269 94.938 332.488 M98.847 335.879 C 99.511 336.434,100.129 336.888,100.219 336.888 C 100.477 336.888,98.157 334.896,97.883 334.882 C 97.750 334.876,98.183 335.324,98.847 335.879 M102.882 338.990 C 102.882 339.048,103.498 339.517,104.251 340.032 C 105.287 340.741,105.409 340.784,104.755 340.210 C 103.885 339.448,102.882 338.794,102.882 338.990 M190.658 343.960 C 190.037 344.508,189.655 344.957,189.809 344.957 C 189.963 344.957,190.529 344.503,191.066 343.948 C 192.308 342.667,192.117 342.672,190.658 343.960 M228.069 344.452 C 226.840 345.869,226.385 346.488,226.708 346.299 C 226.895 346.190,227.457 345.585,227.957 344.953 C 228.927 343.728,229.007 343.370,228.069 344.452 M116.427 347.947 C 116.427 348.015,116.888 348.342,117.452 348.675 C 118.017 349.008,118.398 349.150,118.299 348.990 C 118.106 348.678,116.427 347.742,116.427 347.947 M185.287 348.919 L 184.294 350.000 185.375 349.007 C 186.381 348.082,186.588 347.839,186.368 347.839 C 186.320 347.839,185.833 348.325,185.287 348.919 M222.754 350.793 C 222.219 351.466,222.009 351.834,222.287 351.611 C 222.812 351.189,224.047 349.568,223.843 349.568 C 223.780 349.568,223.290 350.119,222.754 350.793 M182.757 351.225 L 181.675 352.305 182.696 351.442 C 183.258 350.967,183.841 350.480,183.991 350.361 C 184.142 350.242,184.169 350.144,184.052 350.144 C 183.935 350.144,183.352 350.630,182.757 351.225 M121.326 350.574 C 121.326 350.771,123.090 351.646,123.222 351.514 C 123.285 351.451,122.883 351.184,122.331 350.921 C 121.778 350.657,121.326 350.501,121.326 350.574 M177.927 355.376 L 177.378 355.997 178.170 355.487 C 178.987 354.961,179.142 354.755,178.719 354.755 C 178.585 354.755,178.228 355.034,177.927 355.376 M369.741 358.501 C 369.261 359.452,368.933 360.231,369.012 360.231 C 369.091 360.231,369.549 359.452,370.029 358.501 C 370.509 357.550,370.837 356.772,370.758 356.772 C 370.678 356.772,370.221 357.550,369.741 358.501 M149.251 358.418 C 149.556 358.539,149.486 358.714,148.962 359.140 L 148.271 359.702 149.207 359.184 C 150.300 358.579,150.414 358.204,149.496 358.236 C 149.104 358.250,149.007 358.322,149.251 358.418 M214.558 360.150 L 214.052 360.951 214.719 360.311 C 215.086 359.958,215.313 359.598,215.225 359.509 C 215.136 359.420,214.836 359.709,214.558 360.150 M367.867 361.960 C 367.622 362.435,367.485 362.824,367.564 362.824 C 367.644 362.824,367.910 362.435,368.156 361.960 C 368.402 361.484,368.538 361.095,368.459 361.095 C 368.379 361.095,368.113 361.484,367.867 361.960 M136.812 367.297 C 135.744 368.014,134.870 368.663,134.870 368.740 C 134.870 368.818,135.778 368.277,136.888 367.539 C 138.653 366.366,139.119 365.994,138.830 365.994 C 138.788 365.994,137.881 366.581,136.812 367.297 M163.689 367.462 L 162.392 368.639 163.613 367.728 C 164.688 366.925,165.340 366.281,165.075 366.283 C 165.026 366.284,164.402 366.814,163.689 367.462 M208.302 366.787 C 207.794 367.378,207.413 368.012,207.566 368.012 C 207.624 368.012,207.960 367.622,208.312 367.147 C 209.006 366.207,209.000 365.974,208.302 366.787 M132.709 370.029 C 132.233 370.344,131.974 370.599,132.133 370.597 C 132.422 370.592,133.988 369.469,133.718 369.461 C 133.638 369.458,133.184 369.714,132.709 370.029 M202.152 373.271 L 200.432 375.072 202.233 373.352 C 203.224 372.406,204.035 371.595,204.035 371.551 C 204.035 371.338,203.750 371.598,202.152 373.271 M153.514 375.369 C 152.454 376.302,152.834 376.294,153.943 375.360 C 154.414 374.964,154.692 374.644,154.561 374.649 C 154.430 374.654,153.959 374.978,153.514 375.369 M358.567 376.822 C 358.211 377.365,357.977 377.810,358.047 377.810 C 358.247 377.810,359.441 376.060,359.322 375.941 C 359.263 375.882,358.924 376.278,358.567 376.822 M121.902 376.971 C 121.423 377.362,121.375 377.460,121.758 377.262 C 122.698 376.777,123.219 376.378,122.911 376.380 C 122.752 376.381,122.298 376.647,121.902 376.971 M151.337 376.955 C 150.444 377.699,150.847 377.691,151.795 376.945 C 152.198 376.628,152.413 376.373,152.272 376.378 C 152.132 376.384,151.711 376.643,151.337 376.955 M119.597 378.412 C 119.118 378.803,119.070 378.901,119.452 378.703 C 120.392 378.218,120.914 377.818,120.605 377.821 C 120.447 377.822,119.993 378.088,119.597 378.412 M147.695 379.708 L 146.830 380.451 147.767 379.831 C 148.282 379.490,148.703 379.155,148.703 379.087 C 148.703 378.871,148.581 378.946,147.695 379.708 M144.236 382.133 C 143.761 382.447,143.501 382.703,143.660 382.701 C 143.949 382.696,145.516 381.573,145.245 381.565 C 145.166 381.562,144.712 381.818,144.236 382.133 M354.838 381.916 C 353.588 383.550,352.930 384.524,353.176 384.375 C 353.517 384.169,355.430 381.556,355.241 381.556 C 355.171 381.556,354.990 381.718,354.838 381.916 M139.625 385.472 L 138.761 386.215 139.769 385.564 C 141.063 384.729,141.067 384.726,140.754 384.728 C 140.609 384.728,140.101 385.063,139.625 385.472 M188.184 386.768 L 186.888 387.943 188.256 386.876 C 189.456 385.941,189.812 385.589,189.553 385.592 C 189.514 385.592,188.898 386.121,188.184 386.768 M184.704 389.841 L 184.006 390.634 184.870 389.914 C 185.346 389.517,185.789 389.161,185.855 389.121 C 185.921 389.081,185.846 389.049,185.689 389.049 C 185.532 389.049,185.089 389.406,184.704 389.841 M132.565 390.227 C 132.086 390.619,132.038 390.717,132.421 390.519 C 133.361 390.033,133.882 389.634,133.573 389.636 C 133.415 389.637,132.961 389.903,132.565 390.227 M346.809 391.715 C 345.175 393.505,344.569 394.236,344.719 394.236 C 344.802 394.236,345.547 393.458,346.374 392.507 C 347.955 390.689,348.273 390.110,346.809 391.715 M127.938 393.319 C 127.374 393.744,126.596 394.323,126.209 394.605 C 125.754 394.935,125.709 395.020,126.081 394.843 C 126.941 394.434,129.581 392.504,129.250 392.527 C 129.092 392.538,128.501 392.894,127.938 393.319 M91.571 394.401 C 90.493 394.986,90.559 395.229,91.643 394.669 C 92.118 394.423,92.507 394.160,92.507 394.085 C 92.507 393.899,92.476 393.910,91.571 394.401 M88.184 396.110 C 87.788 396.336,87.594 396.521,87.752 396.521 C 87.911 396.521,88.365 396.336,88.761 396.110 C 89.157 395.883,89.352 395.698,89.193 395.698 C 89.035 395.698,88.581 395.883,88.184 396.110 M84.438 397.983 C 83.883 398.286,83.533 398.540,83.660 398.547 C 83.965 398.563,85.591 397.718,85.591 397.543 C 85.591 397.354,85.574 397.361,84.438 397.983 M188.184 397.763 C 188.184 397.854,188.638 398.471,189.193 399.135 C 189.748 399.799,190.196 400.233,190.190 400.099 C 190.176 399.826,188.184 397.506,188.184 397.763 M78.386 400.865 C 77.831 401.168,77.507 401.417,77.666 401.417 C 77.824 401.417,78.408 401.168,78.963 400.865 C 79.517 400.561,79.841 400.312,79.683 400.312 C 79.524 400.312,78.941 400.561,78.386 400.865 M191.354 401.585 C 191.892 402.140,192.397 402.594,192.476 402.594 C 192.555 402.594,192.180 402.140,191.643 401.585 C 191.105 401.030,190.600 400.576,190.521 400.576 C 190.442 400.576,190.817 401.030,191.354 401.585 M74.928 402.450 C 74.532 402.676,74.337 402.861,74.496 402.861 C 74.654 402.861,75.108 402.676,75.504 402.450 C 75.901 402.223,76.095 402.038,75.937 402.038 C 75.778 402.038,75.324 402.223,74.928 402.450 M335.573 402.954 L 334.726 403.890 335.663 403.044 C 336.536 402.255,336.732 402.017,336.509 402.017 C 336.460 402.017,336.038 402.439,335.573 402.954 M192.795 403.066 C 192.795 403.437,194.186 404.757,194.376 404.567 C 194.454 404.489,194.131 404.053,193.657 403.599 C 193.183 403.145,192.795 402.905,192.795 403.066 M332.198 405.781 C 331.125 406.722,330.329 407.493,330.430 407.493 C 330.581 407.493,331.604 406.667,334.424 404.268 C 334.597 404.120,334.597 404.041,334.424 404.051 C 334.273 404.061,333.272 404.839,332.198 405.781 M65.994 406.196 C 65.598 406.422,65.403 406.608,65.562 406.608 C 65.720 406.608,66.174 406.422,66.571 406.196 C 66.967 405.969,67.161 405.784,67.003 405.784 C 66.844 405.784,66.390 405.969,65.994 406.196 M327.754 409.387 L 326.945 410.129 327.882 409.477 C 328.397 409.119,328.818 408.785,328.818 408.735 C 328.818 408.508,328.500 408.703,327.754 409.387 M204.323 412.770 C 204.323 412.837,204.874 413.255,205.548 413.699 C 206.221 414.144,206.620 414.323,206.434 414.098 C 206.077 413.665,204.323 412.562,204.323 412.770 M319.268 415.291 L 318.588 415.884 319.452 415.378 C 320.590 414.712,320.607 414.697,320.253 414.697 C 320.086 414.697,319.642 414.964,319.268 415.291 M31.772 415.472 C 32.050 415.545,32.504 415.545,32.781 415.472 C 33.058 415.400,32.831 415.341,32.277 415.341 C 31.722 415.341,31.495 415.400,31.772 415.472 M24.856 416.057 C 25.292 416.123,26.005 416.123,26.441 416.057 C 26.877 415.991,26.520 415.937,25.648 415.937 C 24.777 415.937,24.420 415.991,24.856 416.057 M18.084 416.342 C 18.440 416.410,19.024 416.410,19.380 416.342 C 19.737 416.273,19.445 416.217,18.732 416.217 C 18.019 416.217,17.727 416.273,18.084 416.342 M10.159 417.300 C 9.161 417.701,9.391 417.878,10.447 417.521 C 10.962 417.348,11.437 417.160,11.503 417.104 C 11.738 416.906,10.797 417.043,10.159 417.300 M86.669 419.128 C 85.019 420.142,84.969 420.383,86.599 419.462 C 88.258 418.525,88.376 418.441,88.016 418.453 C 87.871 418.458,87.265 418.762,86.669 419.128 M308.573 421.202 C 307.456 421.808,307.583 422.018,308.718 421.440 C 309.804 420.888,309.996 420.745,309.630 420.761 C 309.485 420.767,309.009 420.966,308.573 421.202 M219.885 421.470 C 220.281 421.696,220.735 421.882,220.893 421.882 C 221.052 421.882,220.857 421.696,220.461 421.470 C 220.065 421.243,219.611 421.058,219.452 421.058 C 219.294 421.058,219.488 421.243,219.885 421.470 M3.170 422.190 C 2.831 422.666,2.619 423.055,2.699 423.055 C 2.778 423.055,3.120 422.666,3.458 422.190 C 3.797 421.715,4.009 421.326,3.930 421.326 C 3.850 421.326,3.509 421.715,3.170 422.190 M223.631 422.933 C 223.631 423.127,225.128 423.671,225.271 423.528 C 225.336 423.463,224.994 423.272,224.510 423.103 C 224.027 422.934,223.631 422.858,223.631 422.933 M77.450 424.372 C 76.372 424.957,76.438 425.200,77.522 424.640 C 77.997 424.394,78.386 424.131,78.386 424.056 C 78.386 423.871,78.355 423.881,77.450 424.372 M0.355 429.971 C 0.355 430.526,0.414 430.753,0.487 430.476 C 0.559 430.198,0.559 429.744,0.487 429.467 C 0.414 429.189,0.355 429.416,0.355 429.971 M259.150 431.611 C 259.427 431.683,259.881 431.683,260.159 431.611 C 260.436 431.538,260.209 431.479,259.654 431.479 C 259.099 431.479,258.872 431.538,259.150 431.611 M52.954 437.052 C 51.837 437.659,51.963 437.868,53.098 437.291 C 54.184 436.738,54.377 436.595,54.011 436.611 C 53.865 436.617,53.390 436.816,52.954 437.052 M3.746 440.241 C 3.746 440.395,4.233 440.968,4.827 441.514 L 5.908 442.507 4.899 441.358 C 4.344 440.725,3.858 440.153,3.818 440.085 C 3.779 440.017,3.746 440.087,3.746 440.241 M43.228 441.354 C 42.831 441.581,42.637 441.766,42.795 441.766 C 42.954 441.766,43.408 441.581,43.804 441.354 C 44.200 441.128,44.395 440.943,44.236 440.943 C 44.078 440.943,43.624 441.128,43.228 441.354 M20.533 448.045 C 20.969 448.111,21.682 448.111,22.118 448.045 C 22.554 447.979,22.197 447.925,21.326 447.925 C 20.454 447.925,20.097 447.979,20.533 448.045 " stroke="none" fill="#0c7c0c" fill-rule="evenodd"></path><path id="path2" d="" stroke="none" fill="#147c18" fill-rule="evenodd"></path><path id="path3" d="" stroke="none" fill="#147c18" fill-rule="evenodd"></path><path id="path4" d="" stroke="none" fill="#147c18" fill-rule="evenodd"></path></g></svg>